<?xml version="1.0" standalone="no"?><!DOCTYPE svg PUBLIC "-//W3C//DTD SVG 1.1//EN" "http://www.w3.org/Graphics/SVG/1.1/DTD/svg11.dtd"><svg t="1625797278268" class="icon" viewBox="0 0 1024 1024" version="1.1" xmlns="http://www.w3.org/2000/svg" p-id="6644" width="64" height="64" xmlns:xlink="http://www.w3.org/1999/xlink"><defs><style type="text/css"></style></defs><path d="M590.762667 256a108.330667 108.330667 0 0 1 108.245333 104.106667l102.485333-41.002667A68.906667 68.906667 0 0 1 896 383.104v277.504a68.906667 68.906667 0 0 1-94.506667 64l-102.570666-41.045333-0.085334 2.944a108.330667 108.330667 0 0 1-108.074666 101.205333H236.288A108.288 108.288 0 0 1 128 679.381333V364.288A108.288 108.288 0 0 1 236.288 256h354.474667z m0 59.093333H236.288c-27.178667 0-49.194667 22.016-49.194667 49.194667v315.093333c0 27.178667 22.016 49.237333 49.194667 49.237334h354.474667c27.178667 0 49.237333-22.058667 49.237333-49.237334V364.288c0-27.178667-22.058667-49.194667-49.237333-49.194667z m232.661333 58.88L699.093333 423.68v196.309333l124.330667 49.749334a9.813333 9.813333 0 0 0 13.482667-9.130667V383.104a9.813333 9.813333 0 0 0-13.482667-9.130667z" fill="#8a8a8a" p-id="6645"></path></svg>