<?xml version="1.0" standalone="no"?><!DOCTYPE svg PUBLIC "-//W3C//DTD SVG 1.1//EN" "http://www.w3.org/Graphics/SVG/1.1/DTD/svg11.dtd"><svg t="1625945287687" class="icon" viewBox="0 0 1024 1024" version="1.1" xmlns="http://www.w3.org/2000/svg" p-id="17104" xmlns:xlink="http://www.w3.org/1999/xlink" width="64" height="64"><defs><style type="text/css"></style></defs><path d="M262.7 898.3c8.5 16 197 127.7 587.9 125.5 263.9 0-309.7-229.6-309.7-229.6L262.7 898.3z" fill="#EEEEEE" p-id="17105"></path><path d="M739.3 726.1H582.9V321.4h208.6c45.5 0 82.6 37.1 82.6 82.6v187.3c0 74.3-60.5 134.8-134.8 134.8z m-103.8-52.6h103.8c45.3 0 82.2-36.9 82.2-82.2V404c0-16.6-13.5-30-30-30h-156v299.5z" fill="#FFC470" p-id="17106"></path><path d="M856.2 469.3c27.8 93 10 181.7-45.2 222.7-11.9 8.9-31.5 19.9-61.1 24 27.2-9 45.7-22.1 57.8-33 80.4-72.7 50.8-204 48.5-213.7zM235 177.1v696.1c0 34.2 110.6 61.8 247 61.8s247-27.7 247-61.8V177.1H235z" fill="#FFD18D" p-id="17107"></path><path d="M268.6 177.1v675.2c0 34.2 95.5 48.8 213.4 48.8s213.4-14.6 213.4-48.8V177.1H268.6z" fill="#FFA100" p-id="17108"></path><path d="M305.3 877.7c7.3 3.3 16 6.3 26.2 8.9V421.4h-26.2v456.3z" fill="#FFB800" p-id="17109"></path><path d="M376.8 458.2v436.5c19.2 2.4 40.3 4.2 63.2 5.2V458.2h-63.2z" fill="#FFC245" p-id="17110"></path><path d="M268.6 211v205.5c-0.2 0.9-0.5 1.9-0.5 2.8 0 32.1 95.7 58.1 213.7 58.1s213.7-26 213.7-58.1V211H268.6z" fill="#FFBC00" p-id="17111"></path><path d="M462 425.5a11.6 11.6 0 1 0 23.2 0 11.6 11.6 0 1 0-23.2 0z" fill="#FFA200" p-id="17112"></path><path d="M478.6 415.2c2.7 2.1 4.5 5.4 4.5 9.1 0 6.4-5.2 11.6-11.6 11.6-1.8 0-3.5-0.5-5.1-1.2 2 1.5 4.4 2.5 7.1 2.5 6.4 0 11.6-5.2 11.6-11.6 0-4.6-2.6-8.5-6.5-10.4z" fill="#FFA900" p-id="17113"></path><path d="M466.502 420.469a1.3 3 60 1 0 5.196-3 1.3 3 60 1 0-5.196 3z" fill="#FFFFFF" p-id="17114"></path><path d="M497.514 286.103a110 110 0 1 0 110-190.525 110 110 0 1 0-110 190.525z" fill="#FFB000" p-id="17115"></path><path d="M558 80.5C496.4 77 443.6 124 440 185.7v1.4c4.3-60.9 56.7-107.2 117.8-103.7C619 86.9 665.7 139 663 200c0-0.5 0.1-0.9 0.2-1.4 3.5-61.7-43.6-114.5-105.2-118.1z" fill="#FFC324" p-id="17116"></path><path d="M617.312 288.45a87.9 87.9 0 1 0 87.9-152.248 87.9 87.9 0 1 0-87.9 152.247z" fill="#FFA300" p-id="17117"></path><path d="M668.3 121.2c-47.9-2.8-88.9 33.8-91.7 81.7-0.1 1 0 2 0 3 4.3-46.4 44.5-81.4 91.4-78.7 46.9 2.7 82.8 42.1 81.7 88.7 0.1-1 0.3-2 0.3-3 2.8-47.9-33.8-88.9-81.7-91.7z" fill="#FFC730" p-id="17118"></path><path d="M262 175.3a73.2 73.2 0 1 0 146.4 0 73.2 73.2 0 1 0-146.4 0z" fill="#FFC230" p-id="17119"></path><path d="M263.2 179.7c0-40.4 32.8-73.2 73.2-73.2 32.5 0 60 21.2 69.6 50.5-8.2-31.5-36.7-54.9-70.8-54.9-40.4 0-73.2 32.8-73.2 73.2 0 7.9 1.3 15.6 3.6 22.7-1.5-5.9-2.4-12-2.4-18.3z" fill="#FFD182" p-id="17120"></path><path d="M398.905 242.14a95.5 95.5 0 1 0 95.5-165.41 95.5 95.5 0 1 0-95.5 165.41z" fill="#FFC324" p-id="17121"></path><path d="M365.3 118.3C391.6 72.7 450 57 495.7 83.4c24.1 13.9 39.7 36.7 45.3 61.9-4.2-27.8-20.4-53.5-46.6-68.6C448.7 50.3 390.3 66 364 111.6c-12.5 21.6-15.4 46-10.4 68.5-3.1-20.6 0.4-42.3 11.7-61.8z" fill="#FFD266" p-id="17122"></path><path d="M399 121.7c-48.1 3.9-144 11.8-174.2 71.1-17.2 33.8 0 58.7-19.9 132-13.5 49.5-27.4 60.6-35.6 89.4-11.8 41.8 18.4 189.4 72 213.6 32.8 4.6 38.2-31.1 44.2-59.1 6.3-29.3-10.1-39.9-4.3-71.5 7.3-40.1 37.4-42.7 39.4-77 1.9-31.6-23.1-40-19.3-68.8 4.4-33.2 41.9-53.5 52.3-59.1 47.7-25.9 95-16 134-12.8 110.3 9 237.4-28.3 241.3-60.7 4.7-39.2-165-110.6-329.9-97.1z" fill="#FFB600" p-id="17123"></path><path d="M728.3 223.5c0.6-5.1 0.2-25.5-11.4-16-12.9 9.6-27.1 18.6-43.3 26.5-41.9 20.3-79.1 24.7-126.1 29.8-114.4 12.5-145.5-13.4-203.1 17.6-10.7 5.7-72.2 28-76.7 71.1-2.8 26.4 24.5 38.7 23 71.3-1.8 39.3-15.6 37.3-17.9 78-1.5 28.1-2.6 45.8-13 69.4-5.4 12.3-34.3 35.9-18.6 56.5 31.6 7 37.8-30.6 43.8-58.3 6.3-28.9-10-39.4-4.3-70.6 7.3-39.6 37-42.1 39-76 1.8-31.2-22.8-39.5-19.1-67.8 4.4-32.7 41.5-52.8 51.7-58.3 47.2-25.5 88.1 66 126.8 68 78.3 4.1 84.1-77.1 139.2-66.1 100.8 20.2 107.9-58 110-75.1z" fill="#FF9800" p-id="17124"></path><path d="M314.8 155.1c9-6.7 23.8-14.1 44.4-13.1 7 0.4 10.3 8.6 5.7 13.9-8.3 9.5-23.4 20.3-47.3 13.8-6.6-1.8-8.3-10.5-2.8-14.6zM533.1 243s97.2-5.1 137.1-35.1L533.1 243z m-355 209.7s-4 71 36.1 104.1l-36.1-104.1z m102.6-249.5s24.5 33.1 125 35.9c100.5 2.8-85.3-14.1-113.1-41.4-22.7-27.9-24.1-11.6-11.9 5.5zM339.2 654c-8.2 0-15-6.7-15-15V521.2c0-8.2 6.7-15 15-15 8.2 0 15 6.7 15 15v117.9c0 8.2-6.7 14.9-15 14.9z m0-180c-8.2 0-15-6.7-15-15v-1.6c0-8.2 6.7-15 15-15 8.2 0 15 6.7 15 15v1.6c0 8.2-6.7 15-15 15z" fill="#FFFFFF" p-id="17125"></path><path d="M367.8 381.8a20.3 20.3 0 1 0 40.6 0 20.3 20.3 0 1 0-40.6 0z" fill="#FFA200" p-id="17126"></path><path d="M397.1 363.6c4.7 3.7 7.8 9.4 7.8 15.9 0 11.2-9.1 20.3-20.3 20.3-3.2 0-6.2-0.8-8.9-2.2 3.4 2.7 7.7 4.4 12.4 4.4 11.2 0 20.3-9.1 20.3-20.3 0-7.9-4.6-14.8-11.3-18.1z" fill="#FFA900" p-id="17127"></path><path d="M375.791 372.869a2.2 5.2 60 1 0 9.007-5.2 2.2 5.2 60 1 0-9.007 5.2z" fill="#FFFFFF" p-id="17128"></path><path d="M577.6 361.5a11.6 11.6 0 1 0 23.2 0 11.6 11.6 0 1 0-23.2 0z" fill="#FFA200" p-id="17129"></path><path d="M594.3 351.1c2.7 2.1 4.5 5.4 4.5 9.1 0 6.4-5.2 11.6-11.6 11.6-1.8 0-3.5-0.5-5.1-1.2 2 1.5 4.4 2.5 7.1 2.5 6.4 0 11.6-5.2 11.6-11.6-0.1-4.6-2.7-8.5-6.5-10.4z" fill="#FFA900" p-id="17130"></path><path d="M582.066 356.385a1.3 3 60 1 0 5.196-3 1.3 3 60 1 0-5.196 3z" fill="#FFFFFF" p-id="17131"></path><path d="M581.3 402a20.3 20.3 0 1 0 40.6 0 20.3 20.3 0 1 0-40.6 0z" fill="#FFA200" p-id="17132"></path><path d="M610.5 383.9c4.7 3.7 7.8 9.4 7.8 15.9 0 11.2-9.1 20.3-20.3 20.3-3.2 0-6.2-0.8-8.9-2.2 6.9 5.4 17.2 6.7 27.5-1.3 10-13.4 4.5-27.5-6.1-32.7z" fill="#FFA900" p-id="17133"></path><path d="M589.207 393.208a2.2 5.2 60 1 0 9.007-5.2 2.2 5.2 60 1 0-9.007 5.2z" fill="#FFFFFF" p-id="17134"></path><path d="M505.5 396.4a17.5 17.5 0 1 0 35 0 17.5 17.5 0 1 0-35 0z" fill="#FFA200" p-id="17135"></path><path d="M530.7 380.7c4.1 3.2 6.8 8.1 6.8 13.8 0 9.7-7.9 17.5-17.5 17.5-2.8 0-5.4-0.7-7.7-1.9 3 2.3 6.7 3.8 10.8 3.8 9.7 0 17.5-7.9 17.5-17.5-0.1-6.9-4.1-12.8-9.9-15.7z" fill="#FFA900" p-id="17136"></path><path d="M512.3 388.72a1.9 4.5 60 1 0 7.794-4.5 1.9 4.5 60 1 0-7.794 4.5z" fill="#FFFFFF" p-id="17137"></path><path d="M622.4 294.2c6.4 1.3 12.5 2.2 18.2 2.7-12.9-8.8-29.2-17.4-46.9-21.4-41.9-9.3-69.7 76.8-72.7 79.2 44.1-18.4 56.8-69.4 101.4-60.5z" fill="#F87C00" p-id="17138"></path><path d="M815.4 340.3c0.6-0.1 26.1 4.9 37.7 27.7s-56.8-24.3-37.7-27.7z" fill="#FFD18D" p-id="17139"></path></svg>