<?xml version="1.0" standalone="no"?><!DOCTYPE svg PUBLIC "-//W3C//DTD SVG 1.1//EN" "http://www.w3.org/Graphics/SVG/1.1/DTD/svg11.dtd"><svg t="1625945285009" class="icon" viewBox="0 0 1024 1024" version="1.1" xmlns="http://www.w3.org/2000/svg" p-id="16911" xmlns:xlink="http://www.w3.org/1999/xlink" width="64" height="64"><defs><style type="text/css"></style></defs><path d="M523.7 789.4s424.6-17.4 480.7-156.3c72.6-179.7-268.8-271.5-399-270s-81.7 426.3-81.7 426.3z" fill="#F4F4F4" p-id="16912"></path><path d="M60 538.3a429.7 251.9 0 1 0 859.4 0 429.7 251.9 0 1 0-859.4 0z" fill="#FCCE8F" p-id="16913"></path><path d="M91.1 527.6a398.6 233.7 0 1 0 797.2 0 398.6 233.7 0 1 0-797.2 0z" fill="#FFF9B5" p-id="16914"></path><path d="M65.2 525.6a424.5 248.9 0 1 0 849 0 424.5 248.9 0 1 0-849 0z" fill="#FFDBA2" p-id="16915"></path><path d="M592.2 307.2C740.5 345 844 434.1 838.3 531.8c-7 121.8-181.3 210.8-389.1 198.7-83.1-4.8-158.9-25.1-219.6-55.5 68.6 41.7 164.7 67.7 271.3 67.7 208.2 0 376.9-99 376.9-221 0-103.6-121.6-190.5-285.6-214.5z" fill="#FFE1A7" p-id="16916"></path><path d="M85.6 530.9C85.6 396.8 271.1 288 499.8 288c227.1 0 411.4 107.2 414.1 239.9 0-1 0.1-2 0.1-3C914 387.4 724 276 489.5 276 255.2 276 65.2 387.5 65.2 524.9c0 137.5 190 248.9 424.5 248.9 1.7 0 3.4-0.1 5.1-0.1-226.5-1.5-409.2-109.6-409.2-242.8z" fill="#FFF6DA" opacity=".7" p-id="16917"></path><path d="M211.5 514.5a278.2 163.1 0 1 0 556.4 0 278.2 163.1 0 1 0-556.4 0z" fill="#FFD28A" p-id="16918"></path><path d="M489.7 678.6c-153.9 0-279.1-73.6-279.1-164.1s125.2-164.1 279.1-164.1S768.8 424 768.8 514.5 643.6 678.6 489.7 678.6z m0-326.2c-152.9 0-277.2 72.7-277.2 162.1s124.4 162.1 277.2 162.1S766.9 604 766.9 514.5 642.5 352.4 489.7 352.4z" fill="#FFE4AC" p-id="16919"></path><path d="M489.7 774.8c-234.6 0-425.4-112.1-425.4-249.9S255.1 275 489.7 275s425.4 112.1 425.4 249.9-190.9 249.9-425.4 249.9z m0-497.8C256.1 277 66.2 388.2 66.2 524.9s190 247.9 423.5 247.9 423.5-111.2 423.5-247.9c0-131.7-176.3-239.7-397.9-247.5-8.5-0.2-17-0.4-25.6-0.4z" fill="#FFF6DA" p-id="16920"></path><path d="M547.4 585.8l-128-39.2-131.7 48.2s38.6 3.8 85.1 13.4l-68.4 29.1c-0.7 0.3-0.5 1.3 0.2 1.3 14.8 0.6 62.8 9.1 101.6-22.7 52.5 13.5 126.7 34.4 142.9 65.3 34.6 12.4-1.7-95.4-1.7-95.4z" fill="#FFC569" p-id="16921"></path><path d="M189.6 457.3c37.6-31 99.2-53.6 127.6-62.8 95.9-31.3 199.3-34.3 297.1-9.5 27.7 7 55.3 15 81.2 27.1 53.9 25.2 126.3 72.1 107.6 142.1-10.8 40.4-45.4 79-85.2 92.6-30.5 10.5-63.9 14-96 10.2-38.3-4.5-77.6-21.3-102.5-51.6-46-55.8-148 0-231.8-10.7-39.2-5-88.6-20.9-114.9-51.9-27-32.1-12.4-61.4 16.9-85.5z" fill="#BA582D" p-id="16922"></path><path d="M189.6 457.3c37.6-31 99.2-53.6 127.6-62.8 95.9-31.3 199.3-34.3 297.1-9.5 7 1.8 14 3.6 21 5.6 20.6 5.8 40.9 12.5 60.2 21.5 53.9 25.2 21.5 53 2.8 123-10.8 40.4 59.4 98.1 19.6 111.7-30.5 10.5-63.9 14-96 10.2-38.3-4.5-77.6-21.3-102.5-51.6-46-55.8-148 0-231.8-10.7-39.2-5-88.6-20.9-114.9-51.9-27-32.1-12.4-61.4 16.9-85.5z" fill="#D16625" p-id="16923"></path><path d="M796.9 571.6c-51.2 31.1-127.4 1.6-126.7 0.8 0 0-23.7 12.2-30.6 13.4-6.9 1.2-6.1 62.8-6.1 62.8s21.8 3.6 46.9 7.4c12.8-1.9 25.5-5 37.6-9.1 34-11.7 64.1-41.6 78.9-75.3z" fill="#B55521" p-id="16924"></path><path d="M581.7 517.6c-19.9 33.5-93.6 53.8-134.5 62.7 29.4-1.2 54.9 3.9 72.3 25.1 4.9 6 10.6 11.3 16.5 16.2 21-38.2 68.5-142.4 45.7-104z" fill="#D16625" p-id="16925"></path><path d="M806.2 530.8v-49.2s-24.6 32.1-24 32.7c0.5 0.6 24 16.5 24 16.5z" fill="#BB5724" p-id="16926"></path><path d="M158.5 507.2v-44.5l20.9 42.1-14.8 12.8z" fill="#D16625" p-id="16927"></path><path d="M189.4 412.1c37.4-31 98.7-53.6 126.9-62.8 95.4-31.3 198.2-34.3 295.4-9.5 27.5 7 54.5 16.2 80.7 27.1 52.9 22.1 126.7 64.5 111.7 133.2-18.7 85.9-115.6 118.5-193.8 107.8-34.6-4.8-70.3-20-92.9-47.6-45.8-55.8-147.1 0-230.5-10.7-38.9-5-88.1-20.9-114.2-51.9-27-32.1-12.4-61.4 16.7-85.6z" fill="#DC7139" p-id="16928"></path><path d="M804.2 500.1c15-68.7-58.8-111.1-111.7-133.2-11.6-4.8-23.3-9.2-35.2-13.3C680 418.6 713 565.7 548 564.5c-10.2-0.1-18.9 0.1-26.3 0.4 22.7 24.6 56.1 38.5 88.7 43 78.2 10.8 175.1-21.8 193.8-107.8z" fill="#CE682D" opacity=".8" p-id="16929"></path><path d="M297.6 549.6c-38.9-5-88.1-20.9-114.2-51.9-27-32.1-12.5-61.4 16.7-85.6 37.4-31 98.7-53.6 126.9-62.8 51.6-16.9 105.4-25.5 159.3-26-57.5-0.7-114.9 7.9-170 26-28.2 9.2-89.5 31.8-126.9 62.8-29.1 24.2-43.7 53.4-16.7 85.6 26.1 31 75.3 46.9 114.2 51.9 9.4 1.2 19 1.5 28.8 1.3-6.1-0.1-12.1-0.5-18.1-1.3z" fill="#EF8759" opacity=".7" p-id="16930"></path><path d="M216.4 497.9S297.7 388.8 401.1 350c16.6-6.4-160.9 141.1-184.7 147.9z" fill="#C9652C" opacity=".9" p-id="16931"></path><path d="M419.4 506.3s81.3-109.1 184.7-147.9c16.6-6.5-160.9 141-184.7 147.9z" fill="#BF6028" p-id="16932"></path><path d="M524.9 530.8s81.3-109.1 184.7-147.9c16.6-6.5-160.9 141.1-184.7 147.9z" fill="#C9652C" opacity=".95" p-id="16933"></path><path d="M627.9 564.2s55.4-74.8 125.8-101.4c11.4-4.4-109.5 96.8-125.8 101.4z" fill="#C7632E" p-id="16934"></path><path d="M525.2 662.2s29.5 37.3 131.9 56.6c63.6 12 95.7-16.3 103.2-22.9 7.6-6.6-78.6-65.6-78.6-65.6l-113.4-1.4-43.1 33.3z" fill="#FFCD79" p-id="16935"></path><path d="M642.5 571c20 31.5 7.9 75-26.9 97.1-34.9 22.1-79.3 14.5-99.3-17s-7.9-75 26.9-97.1c34.9-22.1 79.4-14.5 99.3 17z" fill="#FE721D" p-id="16936"></path><path d="M647 615.1l-19.5-21.8-7.3 5.8s0.2 10.4 3.2 20.6c-7.6 5.3-18.5 16.4-24.9 37.7-64.6 9.3-89.2-58.3-89.2-58.3-4.9 17.6-2.9 36.3 7.1 52.1 16.1 25.3 47.9 35.2 77.9 26.6 3.4-1 6.8-2.2 10.1-3.7 0.6-0.2 1.1-0.5 1.7-0.8 3.3-1.5 6.5-3.2 9.6-5.2 3.6-2.3 7-4.9 10.1-7.7 0.2-0.2 0.5-0.4 0.8-0.6v-0.1c4.7-4.2 8.8-8.8 12.3-13.8-2.4 0.5-5.1 1.2-8.1 2.2l4.1-11.5c8.7 2.9 12.1-21.5 12.1-21.5z" fill="#FB5D08" p-id="16937"></path><path d="M608 666.5a61.4 53.3 0 1 0 122.8 0 61.4 53.3 0 1 0-122.8 0z" fill="#FE721D" p-id="16938"></path><path d="M622.5 700.9c11.3 11.6 28.1 18.9 46.9 18.9 32.3 0 58.8-21.7 61.2-49.2h-2.3l-12.8 4.7c0-0.1-36.5 43.2-93 25.6z" fill="#FB5D08" p-id="16939"></path><path d="M628.8 583.1s33.2-14.7 39.9-46.6 2.7 53.9-28.8 56.7c-31.4 2.7-11.1-10.1-11.1-10.1z" fill="#83D763" p-id="16940"></path><path d="M630.8 583.4s-12.8-33.9 5.2-61.2-40.3 35.9-20.1 60.3c20 24.3 14.9 0.9 14.9 0.9z" fill="#83D763" p-id="16941"></path><path d="M635.9 589.4s14 33.4 45.9 40.8c31.8 7.4-54 1.7-56.1-29.9s10.2-10.9 10.2-10.9z" fill="#83D763" p-id="16942"></path><path d="M613.6 584.7s10.3 1 15.3-1.6 4.5 12-8.7 16c-8.7-5.5-8.7-14.5-8.7-14.5l2.1 0.1z" fill="#72C950" p-id="16943"></path><path d="M639.4 548.6s-43 6.2-36.1 38.5c4.9 13.1 16.8 11.9 16.8 11.9s-11.3-10.8-3.3-28.6 22.6-21.8 22.6-21.8z" fill="#83D763" p-id="16944"></path><path d="M619.152 591.82a9.1 8.1 83.477 1 0 16.096-1.84 9.1 8.1 83.477 1 0-16.096 1.84z" fill="#71BD4A" p-id="16945"></path><path d="M590.3 556.1c1 5.6-5.2 11.5-14 13-8.7 1.6-16.6-1.7-17.6-7.4-1-5.6 5.2-11.5 14-13 8.7-1.5 16.6 1.8 17.6 7.4z" fill="#FFA13D" opacity=".8" p-id="16946"></path><path d="M563.53 569.165a5.9 8.3 79.834 1 0 16.339-2.93 5.9 8.3 79.834 1 0-16.34 2.93z" fill="#FFFFFF" p-id="16947"></path><path d="M651 632.2c2.4 4.1-0.9 10.4-7.2 14.1-6.4 3.7-13.5 3.3-15.8-0.8-2.4-4.1 0.9-10.4 7.2-14.1 6.4-3.7 13.5-3.4 15.8 0.8z" fill="#FFA13D" opacity=".8" p-id="16948"></path><path d="M635.097 650.314a4.3 6 64.369 1 0 10.82-5.19 4.3 6 64.369 1 0-10.82 5.19z" fill="#FFFFFF" p-id="16949"></path><path d="M465.4 348.2s-180.8 5.9-143.1 77.1c9.9 18.4 15.9 28.7 9.9 39.3-18.9 33.2 2.4 65.2 18.6 74.5 12.5 7.2 10.6 53.8-9.4 59.4-16.7 4.7-43.2 3-55.1 15.9-9.7 10.6 3.5 30.8 51.1 22.4 40.9-7.2 68.8-24 65-41.3-3.9-17.3-11.4-52.7 5.5-56.2 23.1-4.7 30-34.2 68.4-41.3 26.6-4.9 57.1 0.7 62.9-59.1 3.9-21.8 30.8-12.7 39.1-30.7 8.2-18-19.3-60.5-112.9-60z" fill="#EF4000" p-id="16950"></path><path d="M461.5 344.3s-180.8 5.9-143.1 77.1c9.9 18.4 15.9 28.7 9.9 39.3-18.9 33.2 2.4 65.2 18.6 74.5 12.5 7.2 10.6 53.8-9.4 59.4-16.7 4.7-39.3 6.9-51.2 19.8-9.7 10.6-0.4 26.9 47.2 18.5 40.9-7.2 63.6-26.8 59.7-44.2-3.9-17.3 7.8-46 24.6-49.4 32.6-6.6 34.2-44.9 62.8-50.2 26.6-4.9 52.7 9.5 58.5-50.2 3.9-21.8 21.8-18 30.2-36s-14.2-59.1-107.8-58.6z" fill="#FA5112" p-id="16951"></path><path d="M347.4 394.7s23.8-24.1 56.1-25.1 14.8 4.4 38.8 2.7S459 359 482.6 362c23.5 3 34.9 8 32.5 16.1-2.5 8.1-36.6 14.6-42.2 12.7s3.7-8 9.7-12.7c6-4.8-34-1.4-44 8.5-10 9.8-36.5-1.5-46.8 0s-20.5 18.1-33.4 17.2-22.8-2.5-11-9.1zM512.2 423.9s-1.6 28.7-18.2 32.9c-16.6 4.1-39.7 9.6-46.2 24.9-6.5 15.2-38.5 23.5-41.4 31.8-2.9 8.3 1.9-24.9 20.3-37.8s33.1-12 32.2-26.8 23.1-0.9 33.3-12.9 21.8-23 20-12.1z" fill="#F64200" opacity=".8" p-id="16952"></path><path d="M308.1 636.3s47.5-0.4 70.8-20.7c23.3-20.2-25 19.8-76.7 13.6-14.8-2.1-5 7.6 5.9 7.1z" fill="#FFDED2" opacity=".3" p-id="16953"></path><path d="M298.8 611.8s15.2-12.2 38.3-11.8c7.6 0.9-25.1 5.8-33 11.8-5.4 4.1-7.9 3.5-5.3 0z" fill="#FABDA4" opacity=".3" p-id="16954"></path><path d="M468.2 481.6s47.4 5 56.7-15c9.3-20.1-15.2 9.7-45.1 10-29 0.2-22.2 4.5-11.6 5z" fill="#FFFFFF" opacity=".8" p-id="16955"></path><path d="M449.7 359.3s-74-9.6-93.6 26.2c-2.9 5.1 36.8-28.7 86.1-23.4 20.3 2.4 12.5-2.3 7.5-2.8z" fill="#FFFFFF" p-id="16956"></path><path d="M336.9 456.7s-15.9 24.1-7.1 45.5c8.8 21.5-5.1-17.4 6.7-35.7 11.4-17.6 3.8-14.8 0.4-9.8z" fill="#FABDA4" opacity=".3" p-id="16957"></path><path d="M459.1 353s-105.6-4.2-129.1 39.5c-3.5 6.2 48.7-37 118.9-35.5 28.8 0.9 17.4-3.9 10.2-4z" fill="#FFFFFF" opacity=".6" p-id="16958"></path></svg>