<?xml version="1.0" standalone="no"?><!DOCTYPE svg PUBLIC "-//W3C//DTD SVG 1.1//EN" "http://www.w3.org/Graphics/SVG/1.1/DTD/svg11.dtd"><svg t="1625945280145" class="icon" viewBox="0 0 1024 1024" version="1.1" xmlns="http://www.w3.org/2000/svg" p-id="16732" xmlns:xlink="http://www.w3.org/1999/xlink" width="64" height="64"><defs><style type="text/css"></style></defs><path d="M213.7 709.4S201.2 835.5 766 767.2C1263.2 707.1 644.5 540 644.5 540l-222.4 11.8-208.4 157.6z" fill="#F0F0F0" opacity=".4" p-id="16733"></path><path d="M362.1 634.5S290.2 630 234.9 681c-39 35.7-69.1 53.3-69.1 53.3s171.1 18.8 259.9-29.4 70.6-120 70.6-120l-134.2 49.6z" fill="#71CE46" p-id="16734"></path><path d="M359.7 658.8s-117.7 60-150.8 64.6 75.4-2.8 172.4-69.3-21.6 4.7-21.6 4.7z" fill="#59B629" opacity=".45" p-id="16735"></path><path d="M435.7 617s-97.2 47.7-120.2 133.9c-4.7 26-18.7 54.1-18.7 54.1s62.3-31.2 121.4-39.8 104.1-40.6 123.9-71.8c19.7-31.2-62.9-81.4-62.9-81.4l-43.5 5z" fill="#71CE46" p-id="16736"></path><path d="M582.4 368.5s76-30.5 122.2-76.7c0 0 10.3 6.6 6.4 11.3-3.9 4.7-91 70.5-131.7 74.6s3.1-9.2 3.1-9.2z" fill="#7FDB56" p-id="16737"></path><path d="M561.51 381.403a25.2 14.6 72.027 1 0 27.775-9.01 25.2 14.6 72.027 1 0-27.775 9.01z" fill="#6BC840" p-id="16738"></path><path d="M392.7 664.7c-115.1 26.9-227.5-19.4-273.4-106 0 0-45.7-4.5-50.6-33.9-5.2-31.5 29.1-47.3 29.1-47.3-2.8-101.8 78.8-198.7 198-226.6 133.4-31.2 263.3 36.1 290.1 150.4s-59.8 232.1-193.2 263.4z" fill="#FFC900" p-id="16739"></path><path d="M341.3 244c-15 1.1-30.3 3.3-45.5 6.9C176.6 278.7 95 375.7 97.8 477.5c0 0-34.4 15.7-29.1 47.3 1.1 6.7 4.4 12 8.7 16.4 2-33.8 37.6-47.5 37.6-47.5C128.2 355.8 298.4 264.8 341.3 244z" fill="#FFFFFF" opacity=".2" p-id="16740"></path><path d="M188.018 355.297a24 46.1 62.756 1 0 81.972-42.207 24 46.1 62.756 1 0-81.972 42.207z" fill="#FFFFFF" opacity=".4" p-id="16741"></path><path d="M223.048 364.96a12.8 17.8 67.699 1 0 32.938-13.508 12.8 17.8 67.699 1 0-32.938 13.509z" fill="#FFFFFF" p-id="16742"></path><path d="M397 245.4l-1 1.2v-1.2z" fill="#FFBB00" p-id="16743"></path><path d="M499.4 245.4l33.8 28.4-73.6 87.8-63.6-53.4v-61.6l1-1.2z" fill="#FFBB00" p-id="16744"></path><path d="M533.2 273.8l53.3 44.7V401l-2.7 3.2h-73.4l-50.8-42.6z" fill="#FFB900" p-id="16745"></path><path d="M583.8 404.2l2.7-3.2v3.2z" fill="#FFB900" p-id="16746"></path><path d="M160 611.9c54.2 51.2 138.5 75.1 225.4 57.7l125.8-161.7 32.4-44.2S348.9 350 160 611.9z" fill="#FFFFFF" opacity=".05" p-id="16747"></path><path d="M543.1 503.9s-255 166.8-393.9 96.1c54.8 62.3 150.2 92.1 247.7 69.3 42.5-9.9 80.2-28.7 111-53.3l35.2-112.1z" fill="#EEC000" p-id="16748"></path><path d="M357.3 210.4S539.9 403.6 666 325.1c5-0.9 15.5-10.8 19.1-7.6-42.2-36.6-87.2-68-140.4-88-32.5-12.2-66.9-21.2-101.7-22.9-16.6-0.8-32.3 1.3-48.6 3-5.2 0.5-33.2 4.9-37.1 0.8z" fill="#63BF37" p-id="16749"></path><path d="M652 310.1s-139-12.3-252.1-83.2c0 0.1 129.7 57.1 252.1 83.2z" fill="#59B629" p-id="16750"></path><path d="M410 225.4c16.9-1.7 33.2-3.9 50.3-3.1 36 1.8 71.5 11 105.1 23.7 37.1 14 70.4 33.4 101.5 56.1-36.9-30-76.5-55.5-122.1-72.7-32.5-12.2-66.9-21.2-101.7-22.9-16.6-0.8-32.3 1.3-48.6 3-5.2 0.5-33.2 5-37.1 0.8 0 0 6.4 6.8 17.6 17.2 8.6 1.8 30.4-1.6 35-2.1z" fill="#FFFFFF" opacity=".2" p-id="16751"></path><path d="M436.8 686.9c-8.9-1.1-74.7 32.1-104 78.1 0 0 123.3-97.4 147.5-68.1 24.1 29.4-43.5-10-43.5-10z" fill="#59B629" opacity=".45" p-id="16752"></path><path d="M658.5 744.1c-43.4 21.4-95.2 25.1-142.2 12.3-46.9-12.8-103.4-45.8-131.5-97.2-3.6-6.7-13.9-31.1-16.6-38.2 20.2-96.5 39.1-135.2 65-195.2 83.9-57.9 195.5-59.6 268.7 20.5 32.8 35.9 52.3 84 54 132.6 1.8 52.2-18.5 102.5-57.2 137.9-12.1 11-25.7 20.1-40.2 27.3z" fill="#FFC000" p-id="16753"></path><path d="M355.5 557.7a190.4 173.1 0 1 0 380.8 0 190.4 173.1 0 1 0-380.8 0z" fill="#FFE96C" p-id="16754"></path><path d="M397.4 657c-2.6 0-4.9 0-7.3-0.1 34.4 44.6 91.4 73.9 155.9 73.9 105.1 0 190.4-77.5 190.4-173.1 0-28.3-7.5-55-20.7-78.6-0.3 0.6-71.7 182.2-318.3 177.9z" fill="#FFFFFF" opacity=".07" p-id="16755"></path><path d="M368.1 556.8a176.4 161.4 0 1 0 352.8 0 176.4 161.4 0 1 0-352.8 0z" fill="#FFEF9B" p-id="16756"></path><path d="M530 418.5s2.4 110.4 15.7 114.6c12.3 3.8 77.6-101.9 77.6-101.9h-0.3c0.4-0.5 0.6-1.1 0.7-1.6 1.7-7.8-21-23.6-46.8-27.1-25.7-3.5-45.2 0.9-46.9 8.7-0.1 0.6-0.1 4 0 4.6v2.7z m15.3 138.9c-18.4-4.1-76.6 116.2-76.6 116.2l0.3 0.1c-0.3 0.6-0.5 1.3-0.7 2-1.6 9.7 18.3 22.4 44.1 26.6 25.8 4.2 47.8-1.8 49.3-11.5 0.1-0.7 0.1-1.4 0-2.1l0.3 0.1c0.1 0-3-128.3-16.7-131.4z" fill="#FFD800" p-id="16757"></path><path d="M561.8 690.8c0.1-0.7 0.1-1.4 0-2.1l0.3 0.1s-0.7-29.9-3-61.1c-23.1 9.9-49.4 17.9-78.9 23-7 13.5-11.6 23-11.6 23l0.3 0.1c-0.3 0.6-0.5 1.3-0.7 2-1.6 9.7 18.3 22.4 44.1 26.6 25.9 4.1 47.9-1.9 49.5-11.6z" fill="#FFC700" p-id="16758"></path><path d="M702.2 539.7c-0.7-0.2-1.4-0.2-2.1-0.2l0.1-0.3s-128.1-7.9-132.3 5.5c-5.7 18 109.2 86.4 109.2 86.4l0.1-0.3c0.6 0.4 1.3 0.7 1.9 0.8 9.5 2.4 23.9-16.3 30.3-41.7 6.3-25.4 2.3-47.8-7.2-50.2z" fill="#FFD800" p-id="16759"></path><path d="M677.1 631.1l0.1-0.3c0.6 0.4 1.3 0.7 1.9 0.8 9.5 2.4 23.9-16.3 30.3-41.7 6.4-25.3 2.3-47.8-7.2-50.2-0.7-0.2-1.4-0.2-2.1-0.2l0.1-0.3s-8.6-0.5-21.5-1.1c-14.6 17.9-34.1 37.6-59.4 55.7 28.3 19.7 57.8 37.3 57.8 37.3z" fill="#FFC700" p-id="16760"></path><path d="M528.4 553c-8.7-9.9-132.9 4.7-132.9 4.7s-1.2 0.7-1.8 1.1c-8.3 5.2-9.1 47.4 4.8 69.5s37.6 43.1 45.8 37.9c0.6-0.4 3.1-1.4 3.5-2l2.8-2.7c0.1 0 85.1-100.2 77.8-108.5z m133 87.8l-3-2.5s-93.9-88.3-101.9-80.9c-9.2 8.5 27 129.9 27 129.9l0.3-0.2c0.2 0.7 0.6 1.3 1 1.9 5.9 7.8 38.6 5.8 59.4-10 20.8-15.8 25.5-27 19.6-34.7-0.5-0.6-1.8-3-2.4-3.5z" fill="#FFD800" p-id="16761"></path><path d="M661.4 640.8l-3-2.5s-21.5-20.2-44.8-40.5c-14 9.6-29.8 18.6-47.4 26.7 8 31.8 17.2 62.9 17.2 62.9l0.3-0.2c0.2 0.7 0.6 1.3 1 1.9 5.9 7.8 38.6 5.8 59.4-10 20.8-15.8 25.5-27 19.6-34.7-0.4-0.7-1.7-3.1-2.3-3.6z" fill="#FFC700" p-id="16762"></path><path d="M392.5 542.7c0.7 0.1 1.4 0.2 2.1 0.2l-0.1 0.3s128 7.4 132.3-3.1c5.9-14.2-108.2-69.3-108.2-69.3l-0.1 0.3c-0.6-0.3-1.3-0.5-1.9-0.7-9.5-2-24.1 12.7-30.7 32.7-6.7 19.9-2.9 37.6 6.6 39.6z m169-9.5c6.2 8.2 130.1-12.2 130.1-12.2l-0.2-0.2c0.7-0.1 1.3-0.3 1.9-0.6 8.1-3.9 8.9-29.5-4.7-47.2-13.6-17.6-46.2-34.6-54.3-30.7-0.6 0.3-3 1-3.5 1.5l-2.7 2.1c0-0.1-72.2 80-66.6 87.3z m-131.9-74.8l2.9 2s96.1 73.6 101 64.9c4.8-8.5-20.7-107.7-20.7-107.7l-0.3 0.2c-0.2-0.6-0.6-1-1-1.5-5.8-6.2-32.4-8.8-53.4 3.5s-36.6 29.7-30.8 35.9c0.5 0.4 1.7 2.4 2.3 2.7z" fill="#FFD800" p-id="16763"></path><path d="M410.704 509.874a20.8 23.6 66.342 1 0 43.234-18.94 20.8 23.6 66.342 1 0-43.234 18.94z" fill="#FFFFFF" opacity=".4" p-id="16764"></path><path d="M438.7 513.8a11.8 11.8 0 1 0 23.6 0 11.8 11.8 0 1 0-23.6 0z" fill="#FFFFFF" p-id="16765"></path></svg>