<?xml version="1.0" standalone="no"?><!DOCTYPE svg PUBLIC "-//W3C//DTD SVG 1.1//EN" "http://www.w3.org/Graphics/SVG/1.1/DTD/svg11.dtd"><svg t="1625945277405" class="icon" viewBox="0 0 1024 1024" version="1.1" xmlns="http://www.w3.org/2000/svg" p-id="16556" xmlns:xlink="http://www.w3.org/1999/xlink" width="64" height="64"><defs><style type="text/css"></style></defs><path d="M95.8 564.8s119.8 201.3 341.9 245.6c176.5 35.2 587.5 14.2 584.7-33.4S752.6 540.7 662.8 562.6c-89.9 21.9-567 2.2-567 2.2z" fill="#F0F0F0" opacity=".4" p-id="16557"></path><path d="M395.4 426.6a177.5 158 0 1 0 355 0 177.5 158 0 1 0-355 0z" fill="#494E81" p-id="16558"></path><path d="M453.181 349.04a18.8 22.1 57.458 1 0 37.26-23.775 18.8 22.1 57.458 1 0-37.26 23.776z" fill="#6872AF" p-id="16559"></path><path d="M660 546.2c-19.3-97.4-168.7-172.7-237.9-202.7-16.8 24.1-26.7 52.5-26.7 83 0 87.2 79.5 158 177.5 158 32.8 0 63.5-8.1 89.9-21.9-0.8-5.2-1.7-10.7-2.8-16.4z" fill="#424876" p-id="16560"></path><path d="M750.4 426.6c0-26.8-7.6-52.1-20.8-74.2-10.2 49.9-38.8 136.2-98.3 143.5-46.9 5.7-43.1 50.4-31.8 86.7 85.4-11.4 150.9-76.8 150.9-156z" fill="#424876" p-id="16561"></path><path d="M649.3 284.1c-6-2.6-12.2-4.9-18.6-6.8-7 1.2-11.1 1.4-11.1 1.4 5.7-7-16.1 2.9-16.1 2.9-9.5 10.7-10.8-2.8-13.5-12.3-5.6-0.5-11.3-0.8-17.1-0.8-0.8 0-1.5 0.1-2.2 0.1-2.7 5.9-3.5 13-3.5 13-10.4 17.1-8.2-10.1-8.2-10.1-8.5 2.3-32.6 3.4-36 3.5-0.1 0-0.3 0.1-0.4 0.1 6.6 23 42.6 20.8 42.6 20.8-10.3 12.3-31.2 19.3-31.2 19.3 34.6 6.1 55.4-9.6 55.4-9.6 6.6 12.6 33.7 20.8 33.7 20.8 9.1-16.1-11.2-30.9-11.2-30.9 17.8 5.9 30-2.6 37.4-11.4z" fill="#3A4171" p-id="16562"></path><path d="M577.4 261.7c9.7-2.6 26.8-8.9 41.1-24.9 0 0 1.6 28.8-4.1 35.7 0 0 15.1 5.4 37.4-2.5 0 0-14.2 35.9-46.2 25.6 0 0 20.4 14.9 11.2 30.9 0 0-27.1-8.2-33.7-20.8 0 0-20.9 15.6-55.4 9.6 0 0 20.9-7.1 31.2-19.3 0 0-37.5 2.5-45.4-28.3 0 0 30.1 6.3 39.3 3.8 0 0-11.7-18.9-1.3-36-0.1 0.1 11.9 20.8 25.9 26.2" fill="#7A87C3" p-id="16563"></path><path d="M557.3 281.7a23.1 11.1 0 1 0 46.2 0 23.1 11.1 0 1 0-46.2 0z" fill="#5A64A7" p-id="16564"></path><path d="M567.2 281.7a13.2 6.3 0 1 0 26.4 0 13.2 6.3 0 1 0-26.4 0z" fill="#4F5891" p-id="16565"></path><path d="M64.2 463.9a177.2 177.2 0 1 0 354.4 0 177.2 177.2 0 1 0-354.4 0z" fill="#5A64A7" p-id="16566"></path><path d="M264.5 288.4c-7.6-1-15.3-1.7-23.1-1.7-97.9 0-177.2 79.4-177.2 177.2 0 16.8 2.5 32.9 6.8 48.3C101.6 366 220.1 299.3 264.5 288.4z" fill="#6674B8" p-id="16567"></path><path d="M189.876 340.937a23.2 35.6 64.832 1 0 64.44-30.28 23.2 35.6 64.832 1 0-64.44 30.28z" fill="#8287CE" p-id="16568"></path><path d="M342.3 318.3C362.2 347 374 381.7 374 419.2c0 97.9-79.4 177.2-177.2 177.2-37.5 0-72.3-11.7-100.9-31.6 32 46.1 85.2 76.3 145.6 76.3 97.9 0 177.2-79.4 177.2-177.2 0-60.3-30.3-113.6-76.4-145.6z" fill="#4F5393" p-id="16569"></path><path d="M566.8 496c-9.5-38.4 172.7-168.8 270.8-99.2 10.2 7.3 9 20.8 9 20.8s21.8 15.2 22 38.7c0.4 42.7-27.7 70.8-44.4 86.7-16.7 15.9-208.9 47.6-211.3 46s-81-101.8-81-101.8l34.9 8.8z" fill="#68C34C" p-id="16570"></path><path d="M576.7 544.2c0.7 0.8 1.3 1.7 2 2.5 28.8-1.3 204.4-47 268.4-128.7-0.4-0.3-0.6-0.5-0.6-0.5s0.1-0.9 0-2.2c-23.7 25.2-84.5 75.1-218 111.8-30.5 8.5-46.5 14.1-51.8 17.1z" fill="#61AF45" p-id="16571"></path><path d="M597.4 517.5c10.5 0 200.3-43.7 283.4 44.2 11.4 22.8-9.8 39.1-9.8 39.1s16.8 17.4-15.2 47.2c-32 29.9-112.7 81-228.4 64.4-115.8-16.6-30-194.9-30-194.9z" fill="#59BB4A" p-id="16572"></path><path d="M592.2 595.2C476.7 530.8 644 647 871 600.8c0 0-163.3 58.8-278.8-5.6" fill="#52AA40" p-id="16573"></path><path d="M256.1 435.1s-14.4-13-30.4-10.7c-1.7 0.3-3.4 0.6-5.1 1 1-1.7 2-3.4 2.9-5.3 7.3-14.8 0-33.1 0-33.1s-19.2 5.8-26.5 20.7c-1.3 2.7-2.4 5.4-3.2 8.1-1-1.7-2.1-3.4-3.3-5.1-9.4-12.8-29-13.9-29-13.9s-4.5 19.7 4.8 32.5c1 1.4 2.1 2.7 3.2 3.9-1.8 0.1-3.6 0.3-5.4 0.6-16 2.7-27.3 19.6-27.3 19.6s14.7 12.7 30.7 10c1.7-0.3 3.4-0.7 5.1-1.1-1 1.7-1.9 3.5-2.8 5.3-7 15 0.7 33 0.7 33s19.1-6.3 26.1-21.3c1-2.1 1.8-4.2 2.5-6.3 0.5 1 1 2.1 1.6 3.1 8.1 13.7 27.5 16.6 27.5 16.6s6.3-19.2-1.8-32.9c-1.1-1.9-2.4-3.7-3.6-5.3 1.8-0.1 3.7-0.2 5.7-0.5 16-2.1 27.6-18.9 27.6-18.9z m-55.4 41.2c8.1 13.7 27.5 16.6 27.5 16.6s6.3-19.2-1.8-32.9m-30.5-13.5c-0.4-0.2-0.8-0.2-1.2-0.3 0.1-0.8 0.3-1.6 0.2-2.3 0-0.1-0.1-0.2-0.1-0.4 0.2-0.1 0.5-0.2 0.7-0.3 0.8-0.6 1.5-1.4 2-2.3 0.3 0.1 0.6 0.1 0.9 0.2-0.2 0.8-0.3 1.5-0.2 2.3 0 0.2 0.1 0.4 0.2 0.6-0.9 0.7-1.6 1.6-2.1 2.6-0.3 0-0.4-0.1-0.4-0.1z" fill="#4D5B94" p-id="16574"></path><path d="M251.9 432.5s-14.4-13-30.4-10.7c-1.7 0.3-3.4 0.6-5.1 1 1-1.7 2-3.4 2.9-5.3 7.3-14.8 0-33.1 0-33.1s-19.2 5.9-26.5 20.7c-1.3 2.7-2.4 5.4-3.2 8.1-1-1.7-2.1-3.4-3.3-5.1-9.4-12.8-29-13.9-29-13.9s-4.5 19.7 4.8 32.5c1 1.4 2.1 2.7 3.2 3.9-1.8 0.1-3.6 0.3-5.4 0.6-16 2.7-27.3 19.6-27.3 19.6s14.7 12.7 30.7 10c1.7-0.3 3.4-0.7 5.1-1.1-1 1.7-1.9 3.5-2.8 5.3-7 15 0.7 33 0.7 33s19.1-6.3 26.1-21.3c1-2.1 1.8-4.2 2.5-6.3 0.5 1 1 2.1 1.6 3.1 8.1 13.7 27.5 16.6 27.5 16.6s6.3-19.2-1.8-32.9c-1.1-1.9-2.4-3.7-3.6-5.3 1.8-0.1 3.7-0.2 5.7-0.5 16-2.2 27.6-18.9 27.6-18.9z m-55.4 41.1c8.1 13.7 27.5 16.6 27.5 16.6s6.3-19.2-1.8-32.9m-30.6-13.5c-0.4-0.2-0.8-0.2-1.2-0.3 0.1-0.8 0.3-1.6 0.2-2.3 0-0.1-0.1-0.2-0.1-0.4 0.2-0.1 0.5-0.2 0.7-0.3 0.8-0.6 1.5-1.4 2-2.3 0.3 0.1 0.6 0.1 0.9 0.2-0.2 0.8-0.3 1.5-0.2 2.3 0 0.2 0.1 0.4 0.2 0.6-0.9 0.7-1.6 1.6-2.1 2.6-0.3 0-0.3 0-0.4-0.1z" fill="#7D8BC7" p-id="16575"></path><path d="M202.1 455.9c-8.1 5.7-18.8 3.9-24-4s-2.9-18.9 5.1-24.5c8.1-5.7 18.8-3.9 24 4s3 18.8-5.1 24.5z" fill="#5A64A7" p-id="16576"></path><path d="M197.5 448.9c-4.1 2.9-9.6 2-12.3-2.1-2.7-4-1.5-9.7 2.6-12.5 4.1-2.9 9.6-2 12.3 2.1 2.7 4 1.6 9.6-2.6 12.5z" fill="#4F5891" p-id="16577"></path><path d="M282.3 630.2a182.3 182.3 0 1 0 364.6 0 182.3 182.3 0 1 0-364.6 0z" fill="#5A6198" p-id="16578"></path><path d="M366.6 783.8c28.3 18.1 61.9 28.6 98 28.6 100.7 0 182.3-81.6 182.3-182.3 0-38.2-11.8-73.7-31.9-103-10.7 57.1-57.5 218.5-248.4 256.7z" fill="#4A4F80" p-id="16579"></path><path d="M297.1 644.9c0-100.7 81.6-182.3 182.3-182.3 46.6 0 89.1 17.5 121.3 46.3-33.4-37.4-81.9-61-136-61-100.7 0-182.3 81.6-182.3 182.3 0 54.1 23.6 102.6 61 136-28.8-32.2-46.3-74.7-46.3-121.3z" fill="#6671A9" p-id="16580"></path><path d="M509.6 632.4c1.5 0.2 3 0.4 4.5 0.5 20.5 1 38-17.1 38-17.1S536.4 596 516 595c-2.9-0.1-5.6-0.1-8.3 0.1 1.3-2 2.5-4 3.7-6.2 9.5-18.2 0.4-41.7 0.4-41.7s-24.5 6-34 24.2c-1 2-1.9 4-2.7 5.9-1-2.2-2.1-4.4-3.4-6.6-10.3-17.8-35-22.7-35-22.7s-8.1 23.9 2.2 41.6c1.9 3.3 4 6.2 6.2 8.9-2.5-0.2-5.2-0.2-7.9-0.1-20.5 0.9-36.3 20.5-36.3 20.5s17.4 18.2 37.9 17.3c2.3-0.1 4.4-0.3 6.6-0.6-1.2 1.9-2.3 3.9-3.4 6-9.1 18.4 0.5 41.7 0.5 41.7s24.3-6.5 33.4-24.9c1-2 1.8-4 2.6-6 1 2.2 2.2 4.4 3.5 6.6 10.7 17.5 35.5 21.9 35.5 21.9s7.5-24-3.1-41.6c-1.5-2.5-3.1-4.8-4.8-6.9z m-31.8-13.9c-0.7-0.7-1.4-1.3-2.3-1.8-0.1-0.1-0.3-0.1-0.5-0.1 0-0.3 0.2-0.6 0.1-0.9-0.1-1.3-0.4-2.5-0.9-3.7 0.3-0.2 0.6-0.5 0.8-0.7 0.7 0.7 1.4 1.4 2.3 1.8 0.2 0.1 0.5 0.1 0.8 0.2 0.1 1.4 0.5 2.7 1.1 4-0.1 0-0.2 0-0.3 0.1-0.4 0.3-0.7 0.7-1.1 1.1z" fill="#495385" p-id="16581"></path><path d="M504 632.4c1.5 0.2 3 0.4 4.5 0.5 20.5 1 38-17.1 38-17.1S530.9 596 510.4 595c-2.9-0.1-5.6-0.1-8.3 0.1 1.3-2 2.5-4 3.7-6.2 9.5-18.2 0.4-41.7 0.4-41.7s-24.5 6-34 24.2c-1 2-1.9 4-2.7 5.9-1-2.2-2.1-4.4-3.4-6.6-10.3-17.8-35-22.7-35-22.7s-8.1 23.9 2.2 41.6c1.9 3.3 4 6.2 6.2 8.9-2.5-0.2-5.2-0.2-7.9-0.1-20.5 0.9-36.3 20.5-36.3 20.5s17.4 18.2 37.9 17.3c2.3-0.1 4.4-0.3 6.6-0.6-1.2 1.9-2.3 3.9-3.4 6-9.1 18.4 0.5 41.7 0.5 41.7s24.3-6.5 33.4-24.9c1-2 1.8-4 2.6-6 1 2.2 2.2 4.4 3.5 6.6 10.7 17.5 35.5 21.9 35.5 21.9s7.5-24-3.1-41.6c-1.5-2.5-3.1-4.8-4.8-6.9z m-31.8-13.9c-0.7-0.7-1.4-1.3-2.3-1.8-0.1-0.1-0.3-0.1-0.5-0.1 0-0.3 0.2-0.6 0.1-0.9-0.1-1.3-0.4-2.5-0.9-3.7 0.3-0.2 0.6-0.5 0.8-0.7 0.7 0.7 1.4 1.4 2.3 1.8 0.2 0.1 0.5 0.1 0.8 0.2 0.1 1.4 0.5 2.7 1.1 4-0.1 0-0.2 0-0.3 0.1-0.4 0.3-0.7 0.7-1.1 1.1z" fill="#97AAE5" p-id="16582"></path><path d="M449.7 614.8a22.1 22.1 0 1 0 44.2 0 22.1 22.1 0 1 0-44.2 0z" fill="#5A64A7" p-id="16583"></path><path d="M460.5 614.8a11.3 11.3 0 1 0 22.6 0 11.3 11.3 0 1 0-22.6 0z" fill="#4F5891" p-id="16584"></path><path d="M361.473 518.313a26.7 31.4 69.599 1 0 58.86-21.892 26.7 31.4 69.599 1 0-58.86 21.892z" fill="#8899D5" p-id="16585"></path><path d="M179.284 334.403a11.6 13.6 54.972 1 0 22.273-15.612 11.6 13.6 54.972 1 0-22.273 15.612z" fill="#FFFFFF" p-id="16586"></path></svg>