<?xml version="1.0" standalone="no"?><!DOCTYPE svg PUBLIC "-//W3C//DTD SVG 1.1//EN" "http://www.w3.org/Graphics/SVG/1.1/DTD/svg11.dtd"><svg t="1625945267461" class="icon" viewBox="0 0 1024 1024" version="1.1" xmlns="http://www.w3.org/2000/svg" p-id="16212" xmlns:xlink="http://www.w3.org/1999/xlink" width="64" height="64"><defs><style type="text/css"></style></defs><path d="M118.5 785.54a220.5 35.8 0 1 0 441 0 220.5 35.8 0 1 0-441 0z" fill="#EEEEEE" opacity=".4" p-id="16213"></path><path d="M207.034 685.615a153.48 305.66 33.298 1 0 335.61-510.958 153.48 305.66 33.298 1 0-335.61 510.958z" fill="#78D746" p-id="16214"></path><path d="M585.75 267.52c-63.33 56.63-177.44 160.34-257.78 236.81 42.72-107.11 99.32-259.3 125.46-336.82-66.8 19.93-145.55 85.03-206.86 178.36-92.68 141.1-110.38 293.2-39.53 339.74 70.85 46.53 203.41-30.12 296.09-171.22 57.35-87.3 85.9-178.75 82.62-246.87z" fill="#C07928" opacity=".3" p-id="16215"></path><path d="M632.27 267.03c0.41-10.13-11.48-15.9-19.06-9.17-87.17 77.4-341.75 308.82-364.33 343.19-25.84 39.34-104.98 159.82-126.32 192.31 30.23 19.86 86.78-8.7 114.77-13.36 27.53-4.58 374.14 5.48 394.94-512.97z" fill="#C07928" p-id="16216"></path><path d="M641.85 273.32c0.41-10.13-11.48-15.9-19.06-9.17-87.17 77.4-341.75 308.82-364.33 343.19-25.84 39.34-104.98 159.82-126.32 192.31 30.23 19.86 86.78-8.7 114.77-13.36 27.52-4.58 374.13 5.48 394.94-512.97z" fill="#E08700" p-id="16217"></path><path d="M415.57 124.69c9.15-4.74 20.11 4.86 17.09 14.57-34.81 111.79-151.75 433.63-174.33 467.99-25.84 39.34-70.22 135.97-126.32 192.31-32.14-21.11-30.04-85.44-37.98-113.69-7.81-27.78-113.58-335.92 321.54-561.18z" fill="#C07928" p-id="16218"></path><path d="M412.73 122.82c9.13-4.39 19.15 4.22 15.98 13.85-36.41 110.74-157.25 430.01-179.83 464.38-25.84 39.34-71.01 135.45-126.32 192.31-30.23-19.86-26.48-83.1-33.33-110.63-6.72-27.08-144.05-334.9 323.5-559.91z" fill="#FDD187" p-id="16219"></path><path d="M519.35 860.38a220.5 35.8 0 1 0 441 0 220.5 35.8 0 1 0-441 0z" fill="#EEEEEE" opacity=".4" p-id="16220"></path><path d="M339 632.06a305.66 153.48 0 1 0 611.32 0 305.66 153.48 0 1 0-611.32 0z" fill="#69C03F" p-id="16221"></path><path d="M896.42 719.07c-82.08-21.84-231.47-60.29-339.51-85.46 112.98-23.09 271.26-59.34 350.4-80.06-53.34-44.89-150.98-74.97-262.65-74.97C475.85 478.58 339 547.3 339 632.06s136.85 153.48 305.66 153.48c104.45 0 196.63-26.33 251.76-66.47z" fill="#C07928" opacity=".3" p-id="16222"></path><path d="M922.31 757.67c8.69-5.22 6.98-18.32-2.8-20.96-112.55-30.37-445.74-116.1-486.86-116.1H202.57c0 36.17 54.92 67.75 74.17 88.59 18.93 20.49 200.81 315.71 645.57 48.47z" fill="#C07928" p-id="16223"></path><path d="M922.31 769.12c8.69-5.22 6.98-18.32-2.8-20.96-112.55-30.37-445.74-116.1-486.86-116.1H202.57c0 36.17 54.92 67.75 74.17 88.59 18.93 20.5 200.81 315.72 645.57 48.47z" fill="#E89A39" p-id="16224"></path><path d="M922.31 498.4c8.99 5.05 6.98 19.48-2.8 22.28-112.55 32.28-445.74 111.23-486.86 111.23-47.07 0-152.19 15.95-230.08 0 0-38.45 54.92-72.02 74.17-94.17 18.93-21.78 218.41-279.35 645.57-39.34z" fill="#D7923A" p-id="16225"></path><path d="M922.31 495c8.69 5.22 6.98 18.32-2.8 20.96C806.96 546.33 473.77 620.6 432.65 620.6c-47.07 0-152.19 15.01-230.08 0 0-36.17 54.92-67.75 74.17-88.59 18.93-20.49 200.81-304.26 645.57-37.01z" fill="#FCCB7E" p-id="16226"></path><path d="M391.386 505.444a52.43 106.78 76.367 1 0 207.543-50.337 52.43 106.78 76.367 1 0-207.543 50.337z" fill="#FFFFFF" opacity=".4" p-id="16227"></path><path d="M383.311 515.688a12.96 15.46 44.999 1 0 21.863-21.864 12.96 15.46 44.999 1 0-21.863 21.864z" fill="#FFFFFF" p-id="16228"></path></svg>