<?xml version="1.0" standalone="no"?><!DOCTYPE svg PUBLIC "-//W3C//DTD SVG 1.1//EN" "http://www.w3.org/Graphics/SVG/1.1/DTD/svg11.dtd"><svg t="1625945260942" class="icon" viewBox="0 0 1024 1024" version="1.1" xmlns="http://www.w3.org/2000/svg" p-id="15793" xmlns:xlink="http://www.w3.org/1999/xlink" width="64" height="64"><defs><style type="text/css"></style></defs><path d="M681.8 239.6l-0.6-1.6-0.1 0.1c-14.8-29.3-34.4-56.8-59-81.3C497.7 33 296.3 33 172 156.8s-124.3 324.5 0 448.3c24.6 24.5 52.3 43.9 81.6 58.8l-0.1 0.1 1.6 0.6c19.5 9.6 39.5 17.2 60.2 22.5l229 85.8c68.8 34.1 155.1 22.9 212.2-34 57.2-56.9 68.4-142.9 34.1-211.4l-86.2-228.1c-5.4-20.3-13-40.4-22.6-59.8z" fill="#FFAB24" p-id="15794"></path><path d="M172.1 156.9C48.8 279.6 48 477.9 169 601.9 92.5 351.4 241.2 157.5 325 72.6c-55.9 12.9-109.2 40.8-152.9 84.3z" fill="#FFBD40" opacity=".7" p-id="15795"></path><path d="M756.6 739c57.2-56.9 68.4-142.9 34.1-211.4l-86.3-228.1c-5.5-20.6-13-40.6-22.6-60l-0.6-1.6-0.1 0.1c-5.1-10.1-11-19.9-17.3-29.5 1.5 178.4 67.3 326.4-119.6 564.4 68.9 34.3 155.1 23 212.4-33.9z" fill="#FFA321" p-id="15796"></path><path d="M783.8 630c-24.5-24.4-75-13.7-112.7 23.9-37.8 37.7-48.6 87.9-24 112.3 12.6 12.6 31.9 15.7 53 10.8 20.6-8.9 39.8-21.5 56.4-38.2s29.4-35.8 38.3-56.2c4.8-20.8 1.6-40.2-11-52.6z" fill="#F99C0C" opacity=".9" p-id="15797"></path><path d="M869.6 838.9c-18.2 19.5-49.2 20.7-68.8 2.6l-105.6-97.8c-19.6-18.2-20.8-49-2.6-68.5s49.2-20.7 68.8-2.6L867 770.4c19.8 18.2 20.9 49 2.6 68.5z" fill="#FFE790" p-id="15798"></path><path d="M760.1 857.8a67.2 66.9 0 1 0 134.4 0 67.2 66.9 0 1 0-134.4 0z" fill="#FFE584" p-id="15799"></path><path d="M833.3 799.9a63 62.8 0 1 0 126 0 63 62.8 0 1 0-126 0z" fill="#FFE37A" p-id="15800"></path><path d="M187.7 285.9c-21.2-6.3-45.3 11.6-53.7 39.9-8.6 28.4 1.7 56.4 22.9 62.8s45.3-11.6 53.7-39.9c8.5-28.4-1.7-56.5-22.9-62.8z" fill="#FFC54E" p-id="15801"></path><path d="M168.5 902.7a216.4 57 0 1 0 432.8 0 216.4 57 0 1 0-432.8 0z" fill="#F0F0F0" p-id="15802"></path><path d="M563 736.7c0 121-111.5 219-248.9 219s-248.9-98.1-248.9-219H563z" fill="#7FD35E" p-id="15803"></path><path d="M503.1 736.7C494.4 850.8 386.9 941 255.1 941c-13.3 0-26.4-1.2-39.2-2.9 30.1 11.3 63.3 17.8 98.1 17.8 137.4 0 248.9-98.1 248.9-219h-59.8v-0.2z" fill="#6DC548" opacity=".7" p-id="15804"></path><path d="M65.1 736.7a248.9 148.6 0 1 0 497.8 0 248.9 148.6 0 1 0-497.8 0z" fill="#94EB71" p-id="15805"></path><path d="M78.8 736.7a235.2 138.2 0 1 0 470.4 0 235.2 138.2 0 1 0-470.4 0z" fill="#7CD05B" p-id="15806"></path><path d="M314 637.6c-122.3 0-221.3 61.8-221.3 138.2 0 2.8 0.4 5.6 0.7 8.4 33 52.9 119.2 90.7 220.5 90.7 101.5 0 187.6-37.8 220.5-90.7 0.2-2.8 0.7-5.6 0.7-8.4 0.2-76.3-98.8-138.2-221.1-138.2z" fill="#FF832B" p-id="15807"></path><path d="M181.5 786.4c-3.1-45.2 56.9-86.2 133.9-91.4 57-3.9 107.3 12.9 130.9 40.2-10.2-40.7-71.7-68.7-143.8-63.9-77.1 5.2-137.1 46.2-133.9 91.4 0.9 11.8 5.9 22.7 14.2 32.3-0.6-2.9-1.1-5.7-1.3-8.6z" fill="#FF9239" opacity=".7" p-id="15808"></path><path d="M259.5 774.3c-0.5-16.7 22.2-30.8 50.5-31.7 21-0.6 39.3 6.2 47.6 16.7-3.2-15.1-25.3-26.3-51.9-25.6-28.4 0.9-51 15-50.5 31.7 0.1 4.4 1.8 8.4 4.8 12.1-0.3-1-0.4-2.1-0.5-3.2z" fill="#FF8D2C" opacity=".5" p-id="15809"></path><path d="M418.5 755.1c2.1 4.6 3.4 9.5 3.4 14.6 0 31.2-43.1 56.6-96.2 56.6-34.6 0-64.9-10.7-81.7-26.8 11 24.1 48.3 41.9 92.9 41.9 53.1 0 96.2-25.4 96.2-56.6-0.1-11-5.5-21.1-14.6-29.7z" fill="#FF9133" opacity=".7" p-id="15810"></path></svg>