<?xml version="1.0" standalone="no"?><!DOCTYPE svg PUBLIC "-//W3C//DTD SVG 1.1//EN" "http://www.w3.org/Graphics/SVG/1.1/DTD/svg11.dtd"><svg t="1625945257147" class="icon" viewBox="0 0 1024 1024" version="1.1" xmlns="http://www.w3.org/2000/svg" p-id="15628" xmlns:xlink="http://www.w3.org/1999/xlink" width="64" height="64"><defs><style type="text/css"></style></defs><path d="M175.7 879.6s687.1 105.3 780.2 78.3c93-27-114-138-114-138l-651.1-129-15.1 188.7z" fill="#F0F0F0" opacity=".4" p-id="15629"></path><path d="M175.7 554.6l682.1 1.8c30 0.1 54.2 24.4 54.1 54.4v3.2c-0.1 30-24.4 54.2-54.4 54.1l-682.1-1.8c-30-0.1-54.2-24.4-54.1-54.4v-3.2c0.1-29.9 24.5-54.2 54.4-54.1z" fill="#B77800" p-id="15630"></path><path d="M174.2 554.6c-24.4-0.1-44.9 17.5-51 41.3 6 23.8 26.4 41.3 50.7 41.3l685.2 1.7c24.4 0.1 44.9-17.5 51-41.3-6-23.8-26.4-41.3-50.7-41.3l-685.2-1.7z" fill="#D68F00" p-id="15631"></path><path d="M818.9 496.2H210.5s-125.9 76.7-45.7 109.2c22.6 9.2 53.4-16.8 68.7-29 14.1-11.4 23.5-18.9 44.5-18.9s30.4 7.5 44.5 18.8c16.3 13.1 36.6 29.4 75.6 29.4s59.2-16.3 75.6-29.4c13.3-10.7 22.4-17.9 41-18.7 18.6 0.8 27.8 8 41 18.7 16.3 13.1 36.6 29.4 75.5 29.4s59.2-16.3 75.6-29.4c14.1-11.3 23.5-18.9 44.6-18.9s30.4 7.5 44.6 18.8c15.3 12.3 46.1 38.2 68.7 29 80.1-32.3-45.8-109-45.8-109z" fill="#89E065" p-id="15632"></path><path d="M236.7 557.5c-21.1 0-30.4 7.5-44.6 18.8-8.5 6.9-21.9 18-36 24.9 2.8 1.6 5.7 3 8.6 4.2 22.6 9.2 53.4-16.8 68.7-29 8.5-6.8 15.3-12.2 23.9-15.5-6.5-2.4-13.5-3.6-20.6-3.4z m236.7 0.1c-18.6 0.8-27.8 8-41 18.7-13.1 10.5-29 23-54.9 27.5 6.8 1.2 13.7 1.9 20.7 1.9 38.9 0 59.2-16.3 75.5-29.4 7.3-5.8 13.3-10.6 20.4-13.9-6.5-2.9-13.6-4.6-20.7-4.8z m345.5-61.4h-41.3s115.8 70.6 54.3 105c11.1 5.4 22.7 8.2 32.7 4.2 80.2-32.5-45.7-109.2-45.7-109.2zM710 557.5c-21.1 0-30.4 7.5-44.6 18.8-13.1 10.5-29 23-54.9 27.5 6.8 1.2 13.7 1.9 20.7 1.9 39 0 59.2-16.3 75.6-29.4 8.5-6.8 15.3-12.2 23.9-15.5-6.6-2.4-13.6-3.5-20.7-3.3z" fill="#72C84E" p-id="15633"></path><path d="M861.9 879.5l-686.2 0.1c-17.5 0-32.3-15.5-34.5-36.2L130 737.6c-1.3-12.3 6.8-23.2 17.2-23.2l742.9-0.2c10.5 0 18.6 10.9 17.3 23.2l-11.1 105.8c-2.1 20.7-16.9 36.3-34.4 36.3z" fill="#FFAD00" p-id="15634"></path><path d="M148.7 714.2h589.1c10.4 0 18.8 8.4 18.8 18.8v1.1c0 10.4-8.4 18.8-18.8 18.8H148.7c-10.4 0-18.8-8.4-18.8-18.8V733c0-10.4 8.4-18.8 18.8-18.8z" fill="#FFBF3D" p-id="15635"></path><path d="M175.7 879.6c4.7 16.5 686.2-0.1 686.2-0.1 17.5 0 32.3-15.5 34.5-36.2l11.1-105.8c1.2-11.4-5.7-21.4-14.9-22.9-73.6 99.3-261.1 172.8-716.9 165z" fill="#F98900" p-id="15636"></path><path d="M869.6 719.7c14.8 0 27-11.6 27.9-26.4 0.8-16.1-11.2-29.5-26.2-29.5L170 662c-14.8 0-27 11.6-27.9 26.4-0.8 16.1 11.2 29.5 26.2 29.5l400.3 1 301 0.8z" fill="#F7C200" p-id="15637"></path><path d="M838.9 714.8L733 826.6c-22.1 23.9-37.1 7.9-44.4 0.2l-32.5-34.5 130.2-78.1 52.6 0.6z" fill="#F7C200" p-id="15638"></path><path d="M871.2 663.8L170 662c-11.7 0.1-22.2 7.5-26.2 18.5 3.8 10.5 13.3 17.9 24.5 18l397.1 1 118.9 126c6.6 7.1 17.7 7.6 24.8 1.1 0.4-0.3 0.7-0.7 1.1-1.1l118.2-125.4 41.2 0.1c11.7-0.1 22.2-7.5 26.2-18.5-3.8-10.4-13.3-17.8-24.6-17.9z" fill="#FFDE00" p-id="15639"></path><path d="M168.8 480.1l689.6 1.8c18.2 0 32.9 14.8 32.8 33v2c0 18.2-14.8 32.9-33 32.8l-689.6-1.8c-18.2 0-32.9-14.8-32.8-33v-2c0-18.1 14.8-32.8 33-32.8z" fill="#F37100" p-id="15640"></path><path d="M865 482.8L162.2 481c-11.4 0-21 7.9-24.7 18.9 3.7 11 13.3 18.9 24.6 18.9l702.8 1.8c11.3 0 21-7.9 24.7-18.9-3.8-11-13.3-18.8-24.6-18.9z" fill="#FF7E15" p-id="15641"></path><path d="M872.9 412.5c13.5-1 21.5-16.8 14.6-29.1-80.1-142-230.8-232.4-397.2-220.1S186.4 287.2 125.6 439.6c-5.3 13.2 4.7 27.6 18.2 26.6l729.1-53.7z" fill="#F98900" p-id="15642"></path><path d="M490.3 163.3c-166.4 12.3-303.9 123.8-364.7 276.2-4 9.8 0.6 21 10.3 25.2 99.6-1.4 219.2-20.7 344.2-59 121-37.1 228.8-86.3 312.6-139.4-81.6-71.5-188.3-111.4-302.4-103z" fill="#FFAA00" p-id="15643"></path><path d="M502.3 182.7c98.1-7 195.7 18.7 277.6 72.9-79.8-64.8-181.4-100.3-289.6-92.3-166.4 12.3-303.9 123.8-364.7 276.2-0.7 1.9-1.1 3.8-1.3 5.8 66.8-145.4 208.1-250.7 378-262.6z" fill="#FFD393" p-id="15644"></path><path d="M276.325 319.223a21.8 73.3 65.649 1 0 133.558-60.447 21.8 73.3 65.649 1 0-133.558 60.447z" fill="#FFC75A" p-id="15645"></path><path d="M154.23 580.429a8.6 16.9 49.66 1 0 25.762-21.88 8.6 16.9 49.66 1 0-25.763 21.88z" fill="#9AEE77" opacity=".6" p-id="15646"></path><path d="M290.385 283.654a12 20.2 66.506 1 0 37.051-16.106 12 20.2 66.506 1 0-37.05 16.106z" fill="#FFFFFF" p-id="15647"></path></svg>