<?xml version="1.0" standalone="no"?><!DOCTYPE svg PUBLIC "-//W3C//DTD SVG 1.1//EN" "http://www.w3.org/Graphics/SVG/1.1/DTD/svg11.dtd"><svg t="1625945254004" class="icon" viewBox="0 0 1024 1024" version="1.1" xmlns="http://www.w3.org/2000/svg" p-id="15455" xmlns:xlink="http://www.w3.org/1999/xlink" width="64" height="64"><defs><style type="text/css"></style></defs><path d="M531.733 836.88s389.37-13.87 440.78-124.45c66.53-143.12-246.47-216.21-365.84-215.04-119.38 1.15-74.94 339.49-74.94 339.49z" fill="#EEEEEE" p-id="15456"></path><path d="M85.743 648.47a413.61 189 0 1 0 827.22 0 413.61 189 0 1 0-827.22 0z" fill="#FACD87" p-id="15457"></path><path d="M115.733 640.42a383.62 175.39 0 1 0 767.24 0 383.62 175.39 0 1 0-767.24 0z" fill="#FFF9B5" p-id="15458"></path><path d="M90.813 638.43a408.54 186.78 0 1 0 817.08 0 408.54 186.78 0 1 0-817.08 0z" fill="#FDDFA3" p-id="15459"></path><path d="M598.043 475.03c142.77 28.33 242.38 95.2 236.91 168.51-6.82 91.45-174.5 158.23-374.52 149.16-79.98-3.63-152.97-18.86-211.4-41.65 65.98 31.28 158.53 50.77 261.08 50.77 200.36 0 362.78-74.26 362.78-165.86 0.01-77.73-116.99-142.96-274.85-160.93z" fill="#FDCF8F" p-id="15460"></path><path d="M110.443 642.92c0-100.68 178.51-182.3 398.72-182.3 218.56 0 395.96 80.41 398.6 180.06 0.02-0.75 0.12-1.49 0.12-2.24 0-103.16-182.91-186.78-408.54-186.78-225.63 0-408.54 83.63-408.54 186.78 0 103.16 182.91 186.78 408.54 186.78 1.65 0 3.27-0.05 4.91-0.06-217.93-1.21-393.81-82.32-393.81-182.24z" fill="#FFF6D8" p-id="15461"></path><path d="M231.623 630.63a267.73 122.4 0 1 0 535.46 0 267.73 122.4 0 1 0-535.46 0z" fill="#FACD87" p-id="15462"></path><path d="M499.353 753.75c-148.13 0-268.65-55.23-268.65-123.12s120.51-123.12 268.65-123.12 268.65 55.23 268.65 123.12-120.51 123.12-268.65 123.12z m0-244.8c-147.12 0-266.8 54.59-266.8 121.68s119.69 121.68 266.8 121.68 266.8-54.59 266.8-121.68-119.68-121.68-266.8-121.68z" fill="#FFF6D8" p-id="15463"></path><path d="M499.353 825.93c-225.78 0-409.46-84.11-409.46-187.51 0-103.39 183.68-187.5 409.46-187.5s409.46 84.11 409.46 187.5c0 103.4-183.68 187.51-409.46 187.51z m0-373.56c-224.76 0-407.61 83.47-407.61 186.06 0 102.6 182.85 186.07 407.61 186.07s407.61-83.47 407.61-186.07-182.85-186.06-407.61-186.06z" fill="#FFFFFF" p-id="15464"></path><path d="M353.733 684.75a254.56 43.49 0 1 0 509.12 0 254.56 43.49 0 1 0-509.12 0z" fill="#FDC464" p-id="15465"></path><path d="M868.933 384.46c0.61 2.78 0.73 5.66 0.19 8.62-22.55 122.67-165.51 158.66-165.51 158.66V384.46h-23.33v204.56s185-46.69 219.29-204.56h-30.64z" fill="#C52E2A" p-id="15466"></path><path d="M703.613 382.59v-22.97h125.93c19.01 0 34.85 9.97 38.91 22.97h31.53c0.37-1.77 0.82-3.48 1.16-5.28 4.35-23.66-20.94-44.64-52.82-44.64h-168.05v49.93h23.34z" fill="#F3807F" p-id="15467"></path><path d="M856.353 351.48h-151.54v243.89s172.03-45.69 199.17-201.42c3.93-22.52-18.89-42.47-47.63-42.47z m18.77 57.47c-20.34 116.71-149.27 150.95-149.27 150.95V377.12h113.56c21.55 0 38.65 14.96 35.71 31.83z" fill="#F74A43" p-id="15468"></path><path d="M821.223 296.69h-640.73c0 166.02 70.92 311.63 163.05 384.8 0.12 0.11 0.26 0.21 0.38 0.32 0.92 0.73 1.8 1.56 2.73 2.27h0.21c27.4 21.45 85.96 36.31 153.99 36.31 68.03 0 126.59-14.86 153.99-36.31h0.21c0.92-0.71 1.81-1.55 2.73-2.27 0.12-0.11 0.26-0.21 0.38-0.32 92.13-73.17 163.06-218.77 163.06-384.8z" fill="#F74A43" p-id="15469"></path><path d="M357.253 322.37l-60.67-15.65c-33.19 128.62 6.38 259.14 80.96 338.84 0.1 0.11 0.21 0.23 0.3 0.34 0.74 0.79 1.44 1.66 2.19 2.44l0.21 0.05c10.67 11.26 28.65 23.12 51.68 34.31-72.93-89.9-109.32-226.03-74.67-360.33z" fill="#FFFFFF" p-id="15470"></path><path d="M356.633 684.08h-0.21c-0.92-0.71-1.81-1.55-2.73-2.27-0.12-0.11-0.26-0.21-0.38-0.32-92.13-73.17-163.05-218.77-163.05-384.8h-9.76c0 166.02 70.92 311.63 163.05 384.8 0.12 0.11 0.26 0.21 0.38 0.32 0.92 0.73 1.8 1.56 2.73 2.27h0.21c18.71 14.64 51.95 26.21 92.81 32.08-6.97-1.68-13.59-3.54-19.84-5.56-27.23-6.41-49.27-15.61-63.21-26.52z" fill="#FFFFFF" p-id="15471"></path><path d="M783.913 296.69c0 168.46-70.92 316.2-163.05 390.44-0.12 0.11-0.26 0.21-0.38 0.32-0.92 0.74-1.8 1.58-2.73 2.31h-0.21c-14.75 11.72-38.59 21.46-68.02 28 46.56-5.17 84.74-17.56 105.32-33.68h0.21c0.92-0.71 1.81-1.55 2.73-2.27 0.12-0.11 0.26-0.21 0.38-0.32 92.13-73.17 163.05-218.77 163.05-384.8h-37.3z" fill="#F0301E" p-id="15472"></path><path d="M180.493 296.69a320.36 119.29 0 1 0 640.72 0 320.36 119.29 0 1 0-640.72 0z" fill="#F3807F" p-id="15473"></path><path d="M200.023 296.69a300.83 99.77 0 1 0 601.66 0 300.83 99.77 0 1 0-601.66 0z" fill="#F0301E" p-id="15474"></path><path d="M500.853 396.46c121.92 0 226.82-24.07 274.07-58.64-17.44-45.06-133.45-79.89-274.07-79.89s-256.63 34.83-274.07 79.89c47.25 34.57 152.15 58.64 274.07 58.64z" fill="#FDD580" p-id="15475"></path><path d="M339.093 343.24c-2.07-26.4 77.6-47.17 177.95-46.41 74.19 0.57 138.8 12.77 168.34 29.75-11.46-24.1-90.14-43.42-184.01-44.14-100.34-0.77-180.01 20.01-177.95 46.41 0.54 6.88 6.68 13.45 17.09 19.44-0.79-1.66-1.29-3.35-1.42-5.05z" fill="#FFFFFF" p-id="15476"></path><path d="M449.483 332.85c0.09-9.7 30.12-16.82 67.07-15.89 27.32 0.68 50.74 5.58 61.07 12-3.45-8.92-31.82-16.51-66.38-17.38-36.95-0.92-66.98 6.19-67.07 15.89-0.02 2.53 2.03 4.98 5.67 7.24-0.24-0.62-0.37-1.24-0.36-1.86zM650.753 328.34c2.57 2.82 3.97 5.71 3.75 8.65-1.36 18.1-58.42 30.64-127.47 28.02-44.94-1.71-83.76-9.44-105.1-19.61 13.23 14.52 60.98 26.67 118.81 28.87 69.04 2.63 126.11-9.92 127.47-28.02 0.48-6.32-6.02-12.46-17.46-17.91z" fill="#FFFFFF" p-id="15477"></path><path d="M702.273 696.02h-128.91c-9.88 0-17.62-8.52-16.66-18.36l16.55-170.59c0.68-7.02 6.58-12.37 13.63-12.37h101.88c7.05 0 12.95 5.35 13.63 12.37l16.55 170.59c0.94 9.85-6.79 18.36-16.67 18.36z" fill="#78D746" p-id="15478"></path><path d="M702.383 507.08c-0.52-5.36-4.1-9.7-8.9-11.48 1 1.65 1.73 3.47 1.94 5.46l15.11 176.1c1.06 10.11-7.53 18.86-18.52 18.86h10.26c9.88 0 17.62-8.52 16.66-18.36l-16.55-170.58z" fill="#50AB1F" p-id="15479"></path><path d="M690.473 672.17h-110.91c-3.48 0-6.23-3.11-5.95-6.74l5.52-71.66c0.25-3.25 2.84-5.75 5.96-5.75h99.33c3.1 0 5.68 2.47 5.96 5.7l6.03 71.66c0.31 3.65-2.44 6.79-5.94 6.79z" fill="#50AB1F" p-id="15480"></path><path d="M635.903 533.17c-4.72 0-8.55-3.83-8.55-8.55 0-52.79-13.15-117.86-75.8-128.03-4.66-0.76-7.82-5.15-7.07-9.81 0.76-4.65 5.14-7.84 9.81-7.07 58.13 9.44 90.15 60.9 90.15 144.9 0 4.74-3.82 8.56-8.54 8.56z" fill="#69C03F" p-id="15481"></path><path d="M282.003 459.28c-6.87 2.28-14.29-1.45-16.57-8.32-2.28-6.87 1.45-14.29 8.32-16.57 6.87-2.28 14.29 1.45 16.57 8.32 2.27 6.88-1.45 14.29-8.32 16.57z" fill="#FFFFFF" p-id="15482"></path></svg>