<?xml version="1.0" standalone="no"?><!DOCTYPE svg PUBLIC "-//W3C//DTD SVG 1.1//EN" "http://www.w3.org/Graphics/SVG/1.1/DTD/svg11.dtd"><svg t="1625945251181" class="icon" viewBox="0 0 1029 1024" version="1.1" xmlns="http://www.w3.org/2000/svg" p-id="15282" xmlns:xlink="http://www.w3.org/1999/xlink" width="64.3125" height="64"><defs><style type="text/css"></style></defs><path d="M445.555 819.845s505.4-18.318 572.188-164.637c86.357-189.326-319.943-286.037-474.908-284.444-154.966 1.593-97.28 449.08-97.28 449.08z" fill="#F0F0F0" p-id="15283"></path><path d="M0 555.539a430.763 252.473 0 1 0 861.526 0 430.763 252.473 0 1 0-861.525 0z" fill="#FCCF8A" p-id="15284"></path><path d="M31.29 556.108a399.474 234.268 0 1 0 798.947 0 399.474 234.268 0 1 0-798.947 0z" fill="#FFF9B5" p-id="15285"></path><path d="M5.348 542.113a425.415 249.515 0 1 0 850.83 0 425.415 249.515 0 1 0-850.83 0z" fill="#FFE1A5" p-id="15286"></path><path d="M533.505 323.887c148.707 37.888 252.359 127.204 246.67 225.053-7.054 122.197-181.703 211.285-390.03 199.225-83.286-4.893-159.29-25.145-220.16-55.638 68.722 41.757 165.091 67.812 271.929 67.812 208.668 0 377.742-99.214 377.742-221.525 0-103.88-121.742-190.92-286.151-214.927z" fill="#FFD191" p-id="15287"></path><path d="M25.715 548.03c0-134.486 185.912-243.485 415.175-243.485 227.555 0 412.33 107.406 415.061 240.526 0-1.024 0.114-2.048 0.114-2.958 0-137.785-190.464-249.514-425.415-249.514-234.951 0-425.415 111.73-425.415 249.514 0 137.785 190.464 249.515 425.415 249.515 1.706 0 3.413-0.114 5.12-0.114-226.873-1.593-410.055-109.91-410.055-243.484z" fill="#FFF8DA" p-id="15288"></path><path d="M430.763 792.538C195.7 792.538 4.324 680.24 4.324 542.113s191.26-250.425 426.44-250.425 426.439 112.299 426.439 250.425c-0.114 138.126-191.375 250.425-426.44 250.425z m0-498.915c-234.04 0-424.504 111.502-424.504 248.49s190.464 248.49 424.504 248.49 424.505-111.501 424.505-248.49c-0.113-137.102-190.464-248.49-424.505-248.49z" fill="#FFE1A5" p-id="15289"></path><path d="M174.877 607.194c5.006 25.6 311.865 298.44 586.07 37.433C874.61 503.201 524.06 479.422 524.06 479.422l-325.063 77.027c0-0.114-29.013 25.259-24.12 50.745z" fill="#FFC664" p-id="15290"></path><path d="M150.984 540.748a279.78 164.068 0 1 0 559.559 0 279.78 164.068 0 1 0-559.56 0z" fill="#A15500" p-id="15291"></path><path d="M710.43 540.748v-24.804s-15.588 7.51-15.36 8.079 15.36 16.725 15.36 16.725z" fill="#BC6400" p-id="15292"></path><path d="M150.984 515.944v24.804l4.892 14.791 9.216-26.283z" fill="#C56C00" p-id="15293"></path><path d="M705.537 485.338l-0.114-0.341c-1.138-3.641-2.503-7.168-4.096-10.695l-69.973-196.608-401.522 0.796-69.632 195.584c-1.593 3.641-2.958 7.282-4.21 11.037l-0.114 0.227c-3.185 9.899-4.892 20.139-4.892 30.606 0 90.567 125.27 164.068 279.78 164.068s279.665-73.387 279.665-164.068c0-10.467-1.706-20.707-4.892-30.606z" fill="#FFD320" p-id="15294"></path><path d="M160.086 475.212c-1.593 3.64-2.958 7.282-4.21 11.036l-0.113 0.228c-3.186 9.899-4.893 20.139-4.893 30.606 0 21.504 7.168 41.984 19.911 60.757l79.872-261.688-9.67-36.523h-11.151l-69.746 195.584z" fill="#FFE87E" p-id="15295"></path><path d="M226.077 301.7a204.686 120.036 0 1 0 409.373 0 204.686 120.036 0 1 0-409.373 0z" fill="#FFC200" p-id="15296"></path><path d="M239.958 296.467a194.105 114.802 0 1 0 388.21 0 194.105 114.802 0 1 0-388.21 0z" fill="#FF8C00" p-id="15297"></path><path d="M471.61 195.546c-34.02 0-64.967 7.396-88.633 19.57 20.252-7.168 44.032-11.378 69.404-11.378 74.638 0 135.168 35.613 135.168 79.417 0 23.893-18.09 45.284-46.535 59.847 39.367-13.88 65.764-39.14 65.764-68.039 0-43.918-60.53-79.417-135.168-79.417z" fill="#FFB047" p-id="15298"></path><path d="M463.304 376.68c-91.022 0-164.864-43.69-164.864-97.507 0-51.428 67.47-93.526 152.917-97.166-3.982-0.114-7.85-0.342-11.946-0.342-104.22 0-188.758 49.949-188.758 111.616s84.537 111.616 188.758 111.616 188.757-49.948 188.757-111.616c0-2.39-0.341-4.665-0.569-7.054-6.144 50.631-77.255 90.453-164.295 90.453z" fill="#FFB047" p-id="15299"></path><path d="M254.635 376.68s27.08 30.607 68.608 36.864c41.416 6.258-59.62 24.576-68.608-36.864zM364.431 667.383s50.176 13.88 91.819-1.138c46.649-16.84-56.434 0-95.346-14.564-23.893-8.874-27.08 8.192 3.527 15.702zM286.266 266.999a18.204 11.605 0 1 0 36.409 0 18.204 11.605 0 1 0-36.41 0z" fill="#FFFFFF" p-id="15300"></path><path d="M434.063 181.665c-1.593 0-3.072 0-4.665 0.114 102.286 0.796 184.775 49.948 184.775 110.592 0 61.099-83.74 110.706-187.164 110.706-102.514 0-185.8-48.81-187.05-109.34 0 0.91-0.115 1.82-0.115 2.73 0 63.374 86.927 114.802 194.105 114.802s194.105-51.428 194.105-114.802c0.114-63.374-86.699-114.802-193.991-114.802z" fill="#F06D00" p-id="15301"></path><path d="M430.65 422.647c-113.323 0-205.597-54.272-205.597-120.946s92.274-120.946 205.597-120.946 205.596 54.272 205.596 120.946-92.16 120.946-205.596 120.946z m0-240.072c-112.413 0-203.776 53.476-203.776 119.126s91.363 119.125 203.776 119.125 203.776-53.475 203.776-119.125-91.364-119.126-203.776-119.126z" fill="#FFFFFF" p-id="15302"></path><path d="M705.537 485.338l-0.114-0.341c-1.138-3.641-2.503-7.168-4.096-10.695L638.522 298.06l-4.096 3.64c0.91 0 150.983 354.987-234.724 377.288a460.9 460.9 0 0 0 30.948 1.024c154.624 0 279.78-73.387 279.78-164.068 0-10.467-1.707-20.707-4.893-30.606z" fill="#F8A200" p-id="15303"></path><path d="M614.287 690.48s-38.798-105.814-144.27-78.962c0 0.113 0.682 114.688 144.27 78.961z" fill="#69C23F" p-id="15304"></path><path d="M478.436 618.913s79.531 19.911 121.856 73.046c0 0-82.83-62.92-121.856-73.046z" fill="#61B43B" p-id="15305"></path><path d="M600.292 694.462s109.91-25.259 97.735-96.711c0 0-91.932-26.852-97.735 96.71z" fill="#70C545" p-id="15306"></path><path d="M607.46 685.36c-1.934 0 43.236-73.501 81.579-81.465 0 0-36.75 20.82-81.579 81.464z" fill="#6ABB41" p-id="15307"></path><path d="M585.046 686.042c-9.557 1.138-53.362 10.809-57.913 45.853 0 0 52.68 14.563 78.507-19.57 8.306-10.695 8.647-23.666 8.647-23.666-4.779-4.096-19.797-3.64-29.24-2.617z" fill="#75CF48" p-id="15308"></path><path d="M608.94 691.959s-26.966 18.545-76.46 36.522c0 0 50.86-11.491 76.46-36.522z" fill="#65BB3E" p-id="15309"></path></svg>