<?xml version="1.0" standalone="no"?><!DOCTYPE svg PUBLIC "-//W3C//DTD SVG 1.1//EN" "http://www.w3.org/Graphics/SVG/1.1/DTD/svg11.dtd"><svg t="1625944508355" class="icon" viewBox="0 0 1024 1024" version="1.1" xmlns="http://www.w3.org/2000/svg" p-id="3359" xmlns:xlink="http://www.w3.org/1999/xlink" width="64" height="64"><defs><style type="text/css"></style></defs><path d="M510.6176 324.0448m-250.5216 0a250.5216 250.5216 0 1 0 501.0432 0 250.5216 250.5216 0 1 0-501.0432 0Z" fill="#F9B900" p-id="3360"></path><path d="M510.6176 324.0448m-200.6528 0a200.6528 200.6528 0 1 0 401.3056 0 200.6528 200.6528 0 1 0-401.3056 0Z" fill="#F9C633" p-id="3361"></path><path d="M510.6176 324.0448m-153.8048 0a153.8048 153.8048 0 1 0 307.6096 0 153.8048 153.8048 0 1 0-307.6096 0Z" fill="#FFCA61" p-id="3362"></path><path d="M741.0176 952.0128h-460.8c-61.7472 0-111.7696-50.0224-111.7696-111.7696V324.0448h684.3392V840.192c0 61.7472-50.0224 111.8208-111.7696 111.8208z" fill="#6ACC36" p-id="3363"></path><path d="M692.8384 892.416H328.3968c-61.7472 0-111.7696-50.0224-111.7696-111.7696V352.9216h587.9808v427.7248c0 61.7472-50.0224 111.7696-111.7696 111.7696z" fill="#6ED541" p-id="3364"></path><path d="M648.0384 851.3536H373.1968c-61.7472 0-111.7696-50.0224-111.7696-111.7696V334.2848h498.432v405.248c-0.0512 61.7472-50.0736 111.8208-111.8208 111.8208z" fill="#76DD45" p-id="3365"></path><path d="M583.7824 784.6912H437.4528c-61.7472 0-111.7696-50.0224-111.7696-111.7696v-324.608h369.8688v324.608c0 61.696-50.0224 111.7696-111.7696 111.7696z" fill="#8AE555" p-id="3366"></path><path d="M894.4128 375.808H126.8224c-34.4576 0-62.3616-28.672-62.3616-64s27.904-64 62.3616-64h767.5904c34.4576 0 62.3616 28.672 62.3616 64s-27.904 64-62.3616 64z" fill="#6ACC36" p-id="3367"></path><path d="M894.4128 352.768H126.8224c-22.016 0-39.936-18.3296-39.936-40.96s17.8688-40.96 39.936-40.96h767.5904c22.016 0 39.936 18.3296 39.936 40.96s-17.8688 40.96-39.936 40.96z" fill="#6ED541" p-id="3368"></path><path d="M894.4128 332.288H126.8224c-11.008 0-19.968-9.1648-19.968-20.48s8.96-20.48 19.968-20.48h767.5904c11.008 0 19.968 9.1648 19.968 20.48s-8.96 20.48-19.968 20.48z" fill="#9CEF65" p-id="3369"></path><path d="M364.3904 425.0112c-36.7104 0-66.56 29.8496-66.56 66.56v265.216c0 36.7104 29.8496 66.56 66.56 66.56s66.56-29.8496 66.56-66.56v-265.216c0-36.7104-29.8496-66.56-66.56-66.56zM514.8672 425.0112c-36.7104 0-66.56 29.8496-66.56 66.56v265.216c0 36.7104 29.8496 66.56 66.56 66.56s66.56-29.8496 66.56-66.56v-265.216c0-36.7104-29.8496-66.56-66.56-66.56zM665.3952 425.0112c-36.7104 0-66.56 29.8496-66.56 66.56v265.216c0 36.7104 29.8496 66.56 66.56 66.56s66.56-29.8496 66.56-66.56v-265.216c0-36.7104-29.8496-66.56-66.56-66.56z" fill="#6ACC36" p-id="3370"></path><path d="M364.3904 802.8672a46.08 46.08 0 0 1-46.08-46.08v-265.216a46.08 46.08 0 0 1 92.16 0v265.216a46.08 46.08 0 0 1-46.08 46.08zM514.8672 802.8672a46.08 46.08 0 0 1-46.08-46.08v-265.216a46.08 46.08 0 0 1 92.16 0v265.216a46.08 46.08 0 0 1-46.08 46.08zM665.3952 802.8672a46.08 46.08 0 0 1-46.08-46.08v-265.216a46.08 46.08 0 0 1 92.16 0v265.216a46.08 46.08 0 0 1-46.08 46.08z" fill="#F9B900" p-id="3371"></path><path d="M364.3904 784.9472c-15.5648 0-28.16-12.5952-28.16-28.16v-265.216c0-15.5648 12.5952-28.16 28.16-28.16s28.16 12.5952 28.16 28.16v265.216c0 15.5648-12.5952 28.16-28.16 28.16zM514.8672 784.9472c-15.5648 0-28.16-12.5952-28.16-28.16v-265.216c0-15.5648 12.5952-28.16 28.16-28.16s28.16 12.5952 28.16 28.16v265.216c0 15.5648-12.5952 28.16-28.16 28.16zM665.3952 784.9472c-15.5648 0-28.16-12.5952-28.16-28.16v-265.216c0-15.5648 12.5952-28.16 28.16-28.16s28.16 12.5952 28.16 28.16v265.216c0 15.5648-12.6464 28.16-28.16 28.16z" fill="#F9C633" p-id="3372"></path><path d="M364.3904 769.5872a12.8 12.8 0 0 1-12.8-12.8v-265.216a12.8 12.8 0 0 1 25.6 0v265.216a12.8 12.8 0 0 1-12.8 12.8zM514.8672 769.5872a12.8 12.8 0 0 1-12.8-12.8v-265.216a12.8 12.8 0 0 1 25.6 0v265.216a12.8 12.8 0 0 1-12.8 12.8zM665.3952 769.5872a12.8 12.8 0 0 1-12.8-12.8v-265.216a12.8 12.8 0 0 1 25.6 0v265.216a12.8 12.8 0 0 1-12.8 12.8z" fill="#FFD68D" p-id="3373"></path></svg>