<?xml version="1.0" standalone="no"?><!DOCTYPE svg PUBLIC "-//W3C//DTD SVG 1.1//EN" "http://www.w3.org/Graphics/SVG/1.1/DTD/svg11.dtd"><svg t="1625944518421" class="icon" viewBox="0 0 1024 1024" version="1.1" xmlns="http://www.w3.org/2000/svg" p-id="3853" xmlns:xlink="http://www.w3.org/1999/xlink" width="64" height="64"><defs><style type="text/css"></style></defs><path d="M512 512m-444.3648 0a444.3648 444.3648 0 1 0 888.7296 0 444.3648 444.3648 0 1 0-888.7296 0Z" fill="#DD3E3A" p-id="3854"></path><path d="M118.3232 496.0256a397.312 393.6768 90 1 0 787.3536 0 397.312 393.6768 90 1 0-787.3536 0Z" fill="#E54945" p-id="3855"></path><path d="M162.8672 480.6656a352.3584 349.1328 90 1 0 698.2656 0 352.3584 349.1328 90 1 0-698.2656 0Z" fill="#E65D57" p-id="3856"></path><path d="M769.4336 258.304c-27.5968-27.8528-67.84-37.632-105.1136-25.5488L392.1408 320.8704a103.44448 103.44448 0 0 0-66.7136 67.4304l-85.248 273.0496c-11.9296 38.2464-1.1264 78.9504 28.16 106.24 19.2 17.92 44.1344 27.8016 70.1952 27.8016 12.9024 0 25.6-2.4064 37.7856-7.168l272.2304-106.4448c28.5696-11.1616 50.5344-34.304 60.3136-63.3856l85.1968-254.72c12.3392-37.12 2.9184-77.5168-24.6272-105.3696z m-168.96 167.3216l-38.0928 113.92-128.2048 50.1248 38.2464-122.624 128.0512-41.4208z" fill="#DD3E3A" p-id="3857"></path><path d="M338.4832 764.672c-17.92 0-35.4816-6.7072-49.2032-19.5584-20.5824-19.2-28.16-47.7696-19.7632-74.5984l85.248-273.0496a72.6016 72.6016 0 0 1 46.848-47.36l272.1792-88.1152c26.1632-8.4992 54.4768-1.5872 73.8304 17.9712a72.192 72.192 0 0 1 17.2544 73.984l-85.1968 254.72a72.32 72.32 0 0 1-42.3424 44.4928l-272.2304 106.4448c-8.704 3.4304-17.7152 5.0688-26.624 5.0688z m109.3632-321.9456l-62.0544 198.8608 201.1648-78.6432 61.952-185.2416-201.0624 65.024z" fill="#F7BC00" p-id="3858"></path><path d="M338.5344 746.752c-13.5168 0-26.6752-5.0688-37.0688-14.6944-15.5136-14.4384-21.1968-35.9424-14.8992-56.1664l85.248-273.0496c5.2736-16.896 18.4832-30.208 35.2768-35.6352l272.1792-88.1152c19.712-6.4 41.0112-1.2288 55.6032 13.5168 14.592 14.6944 19.5584 36.0448 12.9536 55.7056l-85.1968 254.72a54.59968 54.59968 0 0 1-31.8976 33.536l-272.2304 106.4448c-6.5024 2.5088-13.2608 3.7376-19.968 3.7376zM433.5104 428.544l-75.9296 243.3024 243.712-95.3344 75.8784-226.8672L433.5104 428.544z" fill="#FFD029" p-id="3859"></path><path d="M338.5856 731.392c-9.728 0-19.2-3.6352-26.624-10.5984a38.99904 38.99904 0 0 1-10.7008-40.3456l85.248-273.0496a39.18336 39.18336 0 0 1 25.344-25.6l272.1792-88.1152c14.1312-4.608 29.44-0.8704 39.936 9.728a39.0912 39.0912 0 0 1 9.3184 40.0384l-85.1968 254.72a39.03488 39.03488 0 0 1-22.8864 24.064l-272.2304 106.4448c-4.7104 1.792-9.5744 2.7136-14.3872 2.7136z m-3.1232-40.2944c-0.1536 0.512-0.6144 2.048 0.9216 3.4816s3.0208 0.8704 3.5328 0.6656L612.1472 588.8c0.9216-0.3584 1.6384-1.1264 1.9456-2.0992l85.1968-254.72c0.4096-1.28 0.1536-2.4576-0.8192-3.4304-0.9728-0.9728-2.0992-1.28-3.4304-0.8192L422.912 415.8464c-1.024 0.3584-1.8432 1.1776-2.2016 2.2016l-85.248 273.0496z" fill="#FFE576" p-id="3860"></path><path d="M517.3248 504.6272m-56.832 0a56.832 56.832 0 1 0 113.664 0 56.832 56.832 0 1 0-113.664 0Z" fill="#F7BC00" p-id="3861"></path><path d="M514.048 501.3504m-47.104 0a47.104 47.104 0 1 0 94.208 0 47.104 47.104 0 1 0-94.208 0Z" fill="#FFD029" p-id="3862"></path><path d="M514.048 496.0256m-33.6896 0a33.6896 33.6896 0 1 0 67.3792 0 33.6896 33.6896 0 1 0-67.3792 0Z" fill="#FFE576" p-id="3863"></path></svg>