<?xml version="1.0" standalone="no"?><!DOCTYPE svg PUBLIC "-//W3C//DTD SVG 1.1//EN" "http://www.w3.org/Graphics/SVG/1.1/DTD/svg11.dtd"><svg t="1625944466519" class="icon" viewBox="0 0 1024 1024" version="1.1" xmlns="http://www.w3.org/2000/svg" p-id="1883" xmlns:xlink="http://www.w3.org/1999/xlink" width="64" height="64"><defs><style type="text/css"></style></defs><path d="M779.4176 934.7584H242.8928c-65.536 0-118.6816-53.1456-118.6816-118.6816V210.8416C124.2112 145.3056 177.3568 92.16 242.8928 92.16h391.4752c22.9888 0 45.056 9.216 61.184 25.6512l177.92 180.9408c15.7696 16.0256 24.6272 37.632 24.6272 60.16v457.216c0 65.536-53.1456 118.6304-118.6816 118.6304z" fill="#EC8827" p-id="1884"></path><path d="M763.5456 875.2128H258.7648c-61.696 0-111.6672-48.4864-111.6672-108.2368V214.8864c0-59.8016 49.9712-108.2368 111.6672-108.2368h368.3328c21.6576 0 42.3936 8.448 57.5488 23.3984l167.424 165.0176c14.848 14.6432 23.1936 34.3552 23.1936 54.8864v417.024c-0.0512 59.7504-50.0224 108.2368-111.7184 108.2368z" fill="#EDA948" p-id="1885"></path><path d="M741.7856 826.9312h-461.312c-56.3712 0-102.0416-45.4144-102.0416-101.4784V208.128c0-56.0128 45.6704-101.4784 102.0416-101.4784h336.5888c19.7632 0 38.7072 7.8848 52.5824 21.9136l152.9856 154.6752c13.568 13.7216 21.1968 32.2048 21.1968 51.4048v390.8096c0.0512 56.064-45.6704 101.4784-102.0416 101.4784z" fill="#F3BD50" p-id="1886"></path><path d="M709.632 741.3248H312.6784c-48.4864 0-87.808-37.9904-87.808-84.8896V223.5392c0-46.8992 39.3216-84.8896 87.808-84.8896h289.6384c16.9984 0 33.3312 6.6048 45.2608 18.3296l131.6352 129.3824c11.6736 11.4688 18.2272 26.9312 18.2272 43.008v327.0144c0 46.8992-39.3216 84.9408-87.808 84.9408z" fill="#FFD071" p-id="1887"></path><path d="M643.0208 400.4352H383.8976c-27.904 0-50.4832-22.6304-50.4832-50.4832V106.6496h286.2592c40.8064 0 73.8816 33.0752 73.8816 73.8816v169.4208c-0.0512 27.904-22.6304 50.4832-50.5344 50.4832zM645.7856 541.1328H384.0512c-67.1232 0-121.5488 54.4256-121.5488 121.5488v169.6768h504.9344v-169.6768c-0.0512-67.1232-54.4768-121.5488-121.6512-121.5488z" fill="#EDA948" p-id="1888"></path><path d="M630.784 376.576H396.8c-19.8656 0-35.9424-16.0768-35.9424-35.9424V92.16h278.3232c15.2064 0 27.5456 12.3392 27.5456 27.5456v220.928c0 19.8656-16.0768 35.9424-35.9424 35.9424z" fill="#756AF6" p-id="1889"></path><path d="M609.2288 341.1456H418.3552c-19.8656 0-35.9424-16.0768-35.9424-35.9424V92.16h235.2128c15.2064 0 27.5456 12.3392 27.5456 27.5456v185.4976c0 19.8144-16.128 35.9424-35.9424 35.9424z" fill="#8D7AF9" p-id="1890"></path><path d="M586.1376 312.2176H441.4464c-19.8656 0-35.9424-16.0768-35.9424-35.9424V92.16h189.0304c15.2064 0 27.5456 12.3392 27.5456 27.5456v156.5696c0 19.8656-16.128 35.9424-35.9424 35.9424z" fill="#908BFC" p-id="1891"></path><path d="M636.672 571.392H394.8032c-57.7536 0-104.6016 46.7968-104.6016 104.6016v222.976c0 19.8144 16.0768 35.8912 35.8912 35.8912h379.2384c19.8144 0 35.8912-16.0768 35.8912-35.8912v-222.976c0-57.8048-46.7968-104.6016-104.5504-104.6016z" fill="#756AF6" p-id="1892"></path><path d="M607.232 589.6704H424.2432c-57.7536 0-104.6016 46.7968-104.6016 104.6016v135.4752c0 28.2624 22.8864 51.1488 51.1488 51.1488h289.8944c28.2624 0 51.1488-22.8864 51.1488-51.1488V694.272c0-57.7536-46.848-104.6016-104.6016-104.6016z" fill="#8D7AF9" p-id="1893"></path><path d="M578.5088 609.9968H453.0176c-57.7536 0-104.6016 46.7968-104.6016 104.6016v65.792c0 28.2624 22.8864 51.1488 51.1488 51.1488h232.3456c28.2624 0 51.1488-22.8864 51.1488-51.1488v-65.792c0-57.7536-46.7968-104.6016-104.5504-104.6016z" fill="#908BFC" p-id="1894"></path><path d="M555.1616 142.592c-30.8224 0-55.8592 23.7056-55.8592 52.8384v91.7504c0 29.1328 25.0368 52.8384 55.8592 52.8384s55.8592-23.7056 55.8592-52.8384V195.4304c0-29.1328-25.0368-52.8384-55.8592-52.8384z" fill="#8D7AF9" p-id="1895"></path><path d="M555.1616 324.1472c-21.1968 0-38.4-17.2032-38.4-38.4V196.864c0-21.1968 17.2032-38.4 38.4-38.4s38.4 17.2032 38.4 38.4v88.8832c0 21.1968-17.152 38.4-38.4 38.4z" fill="#F9BE00" p-id="1896"></path><path d="M555.1616 308.7872c-12.7488 0-23.04-10.2912-23.04-23.04V196.864c0-12.7488 10.2912-23.04 23.04-23.04s23.04 10.2912 23.04 23.04v88.8832a23.04 23.04 0 0 1-23.04 23.04z" fill="#FBD500" p-id="1897"></path><path d="M555.1616 295.9872c-5.632 0-10.24-4.608-10.24-10.24V196.864c0-5.632 4.608-10.24 10.24-10.24s10.24 4.608 10.24 10.24v88.8832a10.24 10.24 0 0 1-10.24 10.24z" fill="#FFE471" p-id="1898"></path><path d="M602.5216 785.7664H427.3152c-15.4624 0-27.9552-13.7728-27.9552-30.72s12.544-30.72 27.9552-30.72h175.2064c15.4624 0 27.9552 13.7728 27.9552 30.72s-12.4928 30.72-27.9552 30.72z" fill="#BDBDFF" p-id="1899"></path></svg>