<?xml version="1.0" standalone="no"?><!DOCTYPE svg PUBLIC "-//W3C//DTD SVG 1.1//EN" "http://www.w3.org/Graphics/SVG/1.1/DTD/svg11.dtd"><svg t="1625944501320" class="icon" viewBox="0 0 1024 1024" version="1.1" xmlns="http://www.w3.org/2000/svg" p-id="3032" xmlns:xlink="http://www.w3.org/1999/xlink" width="64" height="64"><defs><style type="text/css"></style></defs><path d="M813.7216 937.0112H215.1424c-88.7808 0-160.768-71.9872-160.768-160.768V324.1984c0-88.7808 71.9872-160.768 160.768-160.768h598.5792c88.7808 0 160.768 71.9872 160.768 160.768v452.0448c0 88.7808-71.9872 160.768-160.768 160.768z" fill="#4058E2" p-id="3033"></path><path d="M780.4928 880.0768H248.3712c-88.7808 0-160.768-71.9872-160.768-160.768V353.792c0-88.7808 71.9872-160.768 160.768-160.768h532.1216c88.7808 0 160.768 71.9872 160.768 160.768v365.5168c0 88.7808-71.9872 160.768-160.768 160.768z" fill="#5565E9" p-id="3034"></path><path d="M737.1264 810.5472H291.7376c-88.7808 0-160.768-71.9872-160.768-160.768v-267.776c0-88.7808 71.9872-160.768 160.768-160.768h445.3888c88.7808 0 160.768 71.9872 160.768 160.768v267.7248c0 88.832-71.9872 160.8192-160.768 160.8192z" fill="#6675FE" p-id="3035"></path><path d="M699.2384 660.992H329.6256c-88.7808 0-160.768-71.9872-160.768-160.768V404.8896c0-88.7808 71.9872-160.768 160.768-160.768h369.5616c88.7808 0 160.768 71.9872 160.768 160.768V500.224c0.0512 88.7808-71.936 160.768-160.7168 160.768z" fill="#7084FC" p-id="3036"></path><path d="M732.6208 449.9968c-31.488-36.3008-86.6304-40.192-122.9312-8.704L463.872 567.808l-35.328-41.728c-15.0528-17.7664-36.096-28.6208-59.2896-30.5152-23.1936-1.8944-45.7728 5.3248-63.488 20.3776-36.6592 31.0784-41.216 86.1696-10.1376 122.8288l92.3648 108.9536c14.9504 17.664 36.7616 28.7744 59.8016 30.5664a87.1424 87.1424 0 0 0 63.744-21.0432l212.4288-184.2688c36.2496-31.5392 40.1408-86.6816 8.6528-122.9824z" fill="#5565E9" p-id="3037"></path><path d="M454.8608 745.1136a54.5792 54.5792 0 0 1-41.472-19.2l-91.6992-108.1856c-19.4048-22.8864-16.5888-57.2416 6.3488-76.6464 22.8864-19.4048 57.2416-16.5888 76.6464 6.3488L460.8 613.632l169.3184-146.8928c22.6816-19.6608 57.0368-17.2544 76.6976 5.4272s17.2544 57.0368-5.4272 76.6976L490.496 731.8016a54.528 54.528 0 0 1-35.6352 13.312z" fill="#F2BB33" p-id="3038"></path><path d="M786.6368 193.3824c-3.584-0.2048-7.168-0.4096-10.752-0.4096h-173.568v95.4368c0 50.8416 41.3696 92.16 92.16 92.16s92.16-41.3696 92.16-92.16V193.3824zM439.552 193.3824c-3.584-0.2048-7.168-0.4096-10.752-0.4096h-173.568v95.4368c0 50.8416 41.3696 92.16 92.16 92.16s92.16-41.3696 92.16-92.16V193.3824z" fill="#5565E9" p-id="3039"></path><path d="M349.2352 340.992c-30.72 0-55.6032-24.8832-55.6032-55.6032V140.544c0-30.72 24.8832-55.6032 55.6032-55.6032s55.6032 24.8832 55.6032 55.6032v144.8448c0 30.72-24.8832 55.6032-55.6032 55.6032zM692.6336 340.992c-30.72 0-55.6032-24.8832-55.6032-55.6032V140.544c0-30.72 24.8832-55.6032 55.6032-55.6032 30.72 0 55.6032 24.8832 55.6032 55.6032v144.8448c0 30.72-24.8832 55.6032-55.6032 55.6032z" fill="#F2BB33" p-id="3040"></path><path d="M454.8608 725.3504c-0.8704 0-1.7408-0.0512-2.6624-0.1024-9.216-0.7168-17.7664-5.0688-23.7568-12.1344l-91.6992-108.1856a34.57024 34.57024 0 0 1 4.0448-48.7424 34.57024 34.57024 0 0 1 48.7424 4.0448l69.0688 81.4592 184.4224-160a34.56 34.56 0 0 1 48.7936 3.4816 34.56 34.56 0 0 1-3.4816 48.7936l-210.8928 182.9376a34.4832 34.4832 0 0 1-22.5792 8.448zM349.2352 320.768c-19.5584 0-35.3792-15.8208-35.3792-35.3792V140.544c0-19.5584 15.8208-35.3792 35.3792-35.3792 19.5584 0 35.3792 15.8208 35.3792 35.3792v144.8448c0 19.5584-15.8208 35.3792-35.3792 35.3792zM692.6336 320.768c-19.5584 0-35.3792-15.8208-35.3792-35.3792V140.544c0-19.5584 15.8208-35.3792 35.3792-35.3792 19.5584 0 35.3792 15.8208 35.3792 35.3792v144.8448c0 19.5584-15.8208 35.3792-35.3792 35.3792z" fill="#F7CA44" p-id="3041"></path><path d="M454.8608 708.0448c-0.4608 0-0.8704 0-1.3312-0.0512-4.608-0.3584-8.9088-2.5088-11.8784-6.0416l-91.6992-108.1856a17.28512 17.28512 0 0 1 1.9968-24.3712 17.28512 17.28512 0 0 1 24.3712 1.9968l80.384 94.8224 197.632-171.4688a17.29024 17.29024 0 0 1 24.4224 1.7408 17.33632 17.33632 0 0 1-1.7408 24.4224l-210.8928 182.9376c-3.1232 2.7136-7.1168 4.1984-11.264 4.1984zM349.2352 303.104c-9.7792 0-17.7152-7.936-17.7152-17.7152V140.544a17.72032 17.72032 0 0 1 35.4304 0v144.8448c0 9.7792-7.936 17.7152-17.7152 17.7152zM692.6336 303.104c-9.7792 0-17.7152-7.936-17.7152-17.7152V140.544a17.72032 17.72032 0 0 1 35.4304 0v144.8448c0 9.7792-7.936 17.7152-17.7152 17.7152z" fill="#FDF2B1" p-id="3042"></path></svg>