<?xml version="1.0" standalone="no"?><!DOCTYPE svg PUBLIC "-//W3C//DTD SVG 1.1//EN" "http://www.w3.org/Graphics/SVG/1.1/DTD/svg11.dtd"><svg t="1625944514866" class="icon" viewBox="0 0 1024 1024" version="1.1" xmlns="http://www.w3.org/2000/svg" p-id="3689" xmlns:xlink="http://www.w3.org/1999/xlink" width="64" height="64"><defs><style type="text/css"></style></defs><path d="M617.472 955.136H289.1264c-83.4048 0-150.9888-67.584-150.9888-150.9888V223.744c0-83.4048 67.584-150.9888 150.9888-150.9888h447.0784c83.4048 0 150.9888 67.584 150.9888 150.9888v461.568c0 12.0832-4.8128 23.6032-13.312 32.1536l-224.256 224.3584a45.46048 45.46048 0 0 1-32.1536 13.312z" fill="#EC6920" p-id="3690"></path><path d="M621.2608 889.1392H316.3136c-73.216 0-132.608-59.2384-132.608-132.3008V248.2176c0-73.0624 59.392-132.3008 132.608-132.3008h392.6528c73.216 0 132.608 59.2384 132.608 132.3008v420.9664l-220.3136 219.9552z" fill="#F9832B" p-id="3691"></path><path d="M608.4608 831.6416H339.456c-64.6144 0-116.992-52.48-116.992-117.1968v-450.56c0-64.7168 52.3776-117.1968 116.992-117.1968h346.4192c64.6144 0 116.992 52.48 116.992 117.1968v372.9408l-194.4064 194.816z" fill="#F99543" p-id="3692"></path><path d="M637.9008 711.9872a153.41056 153.41056 0 0 1-108.6464 45.1072H367.5136c-54.1184 0-97.9968-44.032-97.9968-98.304V280.8832c0-54.272 43.8784-98.304 97.9968-98.304h290.2528c54.1184 0 97.9968 44.032 97.9968 98.304v249.3952c0 40.6016-16.0768 79.5648-44.7488 108.288l-73.1136 73.4208z" fill="#FFB15C" p-id="3693"></path><path d="M667.5456 221.2352H359.7312c-42.3424 0-76.8 34.4576-76.8 76.8s34.4576 76.8 76.8 76.8h307.8656c42.3424 0 76.8-34.4576 76.8-76.8s-34.5088-76.8-76.8512-76.8zM667.5456 418.7136H359.7312c-42.3424 0-76.8 34.4576-76.8 76.8s34.4576 76.8 76.8 76.8h307.8656c42.3424 0 76.8-34.4576 76.8-76.8s-34.5088-76.8-76.8512-76.8zM490.4448 616.1408H359.7312c-42.3424 0-76.8 34.4576-76.8 76.8s34.4576 76.8 76.8 76.8h130.7136c42.3424 0 76.8-34.4576 76.8-76.8s-34.4576-76.8-76.8-76.8z" fill="#F9832B" p-id="3694"></path><path d="M667.5456 349.2352H359.7312c-28.2624 0-51.2-22.9376-51.2-51.2s22.9376-51.2 51.2-51.2h307.8656c28.2624 0 51.2 22.9376 51.2 51.2s-22.9376 51.2-51.2512 51.2zM667.5456 546.7136H359.7312c-28.2624 0-51.2-22.9376-51.2-51.2s22.9376-51.2 51.2-51.2h307.8656c28.2624 0 51.2 22.9376 51.2 51.2s-22.9376 51.2-51.2512 51.2zM487.168 744.1408H359.7312c-28.2624 0-51.2-22.9376-51.2-51.2s22.9376-51.2 51.2-51.2h127.4368c28.2624 0 51.2 22.9376 51.2 51.2s-22.9376 51.2-51.2 51.2z" fill="#756AF6" p-id="3695"></path><path d="M667.5456 331.3152H359.7312a33.28 33.28 0 1 1 0-66.56h307.8656c18.3808 0 33.28 14.8992 33.28 33.28s-14.9504 33.28-33.3312 33.28zM667.5456 528.7936H359.7312a33.28 33.28 0 1 1 0-66.56h307.8656c18.3808 0 33.28 14.8992 33.28 33.28s-14.9504 33.28-33.3312 33.28zM487.168 726.2208H359.7312a33.28 33.28 0 1 1 0-66.56h127.4368a33.28 33.28 0 1 1 0 66.56z" fill="#8380FF" p-id="3696"></path><path d="M667.5456 313.3952H359.7312c-8.4992 0-15.36-6.8608-15.36-15.36s6.8608-15.36 15.36-15.36h307.8656c8.4992 0 15.36 6.8608 15.36 15.36s-6.912 15.36-15.4112 15.36zM667.5456 510.8736H359.7312c-8.4992 0-15.36-6.8608-15.36-15.36s6.8608-15.36 15.36-15.36h307.8656c8.4992 0 15.36 6.8608 15.36 15.36s-6.912 15.36-15.4112 15.36zM487.168 708.3008H359.7312c-8.4992 0-15.36-6.8608-15.36-15.36s6.8608-15.36 15.36-15.36h127.4368c8.4992 0 15.36 6.8608 15.36 15.36s-6.8608 15.36-15.36 15.36z" fill="#B1B1FC" p-id="3697"></path><path d="M580.4032 708.608v246.5792h14.5408c19.5584 0 38.2976-7.7824 52.1216-21.6064l218.4704-218.5728c13.824-13.824 21.5552-32.5632 21.5552-52.1216v-11.6224h-249.3952c-31.5904-0.0512-57.2928 25.6512-57.2928 57.344z" fill="#EC6920" p-id="3698"></path><path d="M613.5808 730.5728v199.8336h27.0848c6.0928 0 11.8784-2.4064 16.1792-6.7072l198.7072-198.7584c4.3008-4.3008 6.7072-10.0864 6.7072-16.1792v-24.6784h-202.1376c-25.7536 0-46.5408 20.7872-46.5408 46.4896z" fill="#F9832B" p-id="3699"></path><path d="M653.568 751.0016v135.1168h18.3296c4.096 0 8.0384-1.6384 10.9568-4.5568l134.3488-134.4c2.9184-2.9184 4.5056-6.8608 4.5056-10.9568v-16.6912h-136.704a31.51872 31.51872 0 0 0-31.4368 31.488z" fill="#F99543" p-id="3700"></path><path d="M684.5952 765.6448v79.0528h10.7008c2.4064 0 4.7104-0.9728 6.4-2.6624l78.592-78.6432c1.6896-1.6896 2.6624-3.9936 2.6624-6.4v-9.7792H702.976a18.3808 18.3808 0 0 0-18.3808 18.432z" fill="#FFB15C" p-id="3701"></path></svg>