<?xml version="1.0" standalone="no"?><!DOCTYPE svg PUBLIC "-//W3C//DTD SVG 1.1//EN" "http://www.w3.org/Graphics/SVG/1.1/DTD/svg11.dtd"><svg t="1625944471109" class="icon" viewBox="0 0 1024 1024" version="1.1" xmlns="http://www.w3.org/2000/svg" p-id="2051" xmlns:xlink="http://www.w3.org/1999/xlink" width="64" height="64"><defs><style type="text/css"></style></defs><path d="M518.2976 301.7216c-11.1616 0-22.3744-4.1984-31.0272-12.544L335.3088 141.8752c-17.664-17.152-18.1248-45.3632-0.9728-63.0272 17.152-17.664 45.3632-18.1248 63.0272-0.9728l120.32 116.5824 114.8928-115.968c17.3568-17.5104 45.568-17.6128 63.0272-0.3072s17.6128 45.568 0.3072 63.0272l-145.92 147.2512a44.3904 44.3904 0 0 1-31.6928 13.2608z" fill="#F9832B" p-id="2052"></path><path d="M518.2976 285.952c-7.2192 0-14.4896-2.7136-20.0704-8.1408L346.2656 130.56a28.86656 28.86656 0 0 1-0.6144-40.8064 28.91264 28.91264 0 0 1 40.8064-0.6656l131.4816 127.4368 125.8496-127.0272a28.86144 28.86144 0 0 1 40.8064-0.2048 28.86144 28.86144 0 0 1 0.2048 40.8064l-145.92 147.2512a28.80512 28.80512 0 0 1-20.5824 8.6016z" fill="#F1B452" p-id="2053"></path><path d="M647.7824 139.5712c-3.328 0-6.656-1.28-9.216-3.7888-5.12-5.12-5.1712-13.4144-0.1024-18.5344l16.4864-16.64c5.0688-5.12 13.4144-5.1712 18.5344-0.1024 5.12 5.12 5.1712 13.4144 0.1024 18.5344l-16.4864 16.64c-2.6112 2.6112-5.9904 3.8912-9.3184 3.8912zM518.2976 270.2336c-3.2768 0-6.6048-1.2288-9.1136-3.6864L357.2224 119.296a13.1072 13.1072 0 1 1 18.2272-18.8416l142.6432 138.24 95.3344-96.2048c5.0688-5.12 13.4144-5.1712 18.5344-0.1024 5.12 5.12 5.1712 13.4144 0.1024 18.5344l-104.4992 105.4208c-2.5088 2.6112-5.888 3.8912-9.2672 3.8912z" fill="#FFE1AB" p-id="2054"></path><path d="M782.848 952.576H246.5792c-45.6192 0-82.6368-37.0176-82.6368-82.6368V461.4144h701.5424v408.5248c0 45.6192-36.9664 82.6368-82.6368 82.6368z" fill="#DD3E3A" p-id="2055"></path><path d="M748.9536 908.4928h-468.48c-45.6192 0-82.6368-37.0176-82.6368-82.6368v-287.5392h633.7024v287.5392c0.0512 45.6192-36.9664 82.6368-82.5856 82.6368z" fill="#E4524B" p-id="2056"></path><path d="M718.2848 858.9312H311.1936c-45.6192 0-82.6368-37.0176-82.6368-82.6368v-238.0288h572.3648v238.0288c0 45.6704-37.0176 82.6368-82.6368 82.6368z" fill="#E65D57" p-id="2057"></path><path d="M304.6912 528.4352h418.9696v392.192H304.6912z" fill="#DD3E3A" p-id="2058"></path><path d="M661.9136 952.576H367.5648a34.2528 34.2528 0 0 1-34.2528-34.2528V461.4144h362.8032v456.9088c0 18.8928-15.3088 34.2528-34.2016 34.2528z" fill="#F9832B" p-id="2059"></path><path d="M604.3136 908.4928h-179.2c-30.5152 0-55.2448-24.7296-55.2448-55.2448V466.4832h289.7408v386.7136c0 30.5664-24.7296 55.296-55.296 55.296z" fill="#F1B452" p-id="2060"></path><path d="M573.2864 864.9728H456.192c-30.5152 0-55.2448-24.7296-55.2448-55.2448v-271.4112h227.584v271.4112c0 30.5152-24.7296 55.2448-55.2448 55.2448z" fill="#FFC373" p-id="2061"></path><path d="M878.8992 499.0976H150.528c-38.4512 0-69.5808-31.1296-69.5808-69.5808V286.0032c0-38.4512 31.1296-69.5808 69.5808-69.5808h728.4224c38.4512 0 69.5808 31.1296 69.5808 69.5808v143.5136c0 38.4512-31.1808 69.5808-69.632 69.5808z" fill="#E2463E" p-id="2062"></path><path d="M853.7088 461.4144H175.7184c-31.744 0-57.4976-25.7536-57.4976-57.4976V285.3376c0-31.744 25.7536-57.4976 57.4976-57.4976h677.9904c31.744 0 57.4976 25.7536 57.4976 57.4976v118.5792c0.0512 31.744-25.7024 57.4976-57.4976 57.4976z" fill="#E4524B" p-id="2063"></path><path d="M817.5616 415.8976H211.8656c-31.744 0-57.4976-25.7536-57.4976-57.4976V299.3664c0-31.744 25.7536-57.4976 57.4976-57.4976h605.696c31.744 0 57.4976 25.7536 57.4976 57.4976V358.4c0.0512 31.744-25.7024 57.4976-57.4976 57.4976z" fill="#E65D57" p-id="2064"></path><path d="M479.488 346.88H250.2144c-18.8416 0-34.0992-15.2576-34.0992-34.0992s15.2576-34.0992 34.0992-34.0992h229.2736c18.8416 0 34.0992 15.2576 34.0992 34.0992-0.0512 18.8416-15.3088 34.0992-34.0992 34.0992zM606.0032 346.88h-25.9072c-18.8416 0-34.0992-15.2576-34.0992-34.0992s15.2576-34.0992 34.0992-34.0992h25.9072c18.8416 0 34.0992 15.2576 34.0992 34.0992-0.0512 18.8416-15.3088 34.0992-34.0992 34.0992z" fill="#FFB8B8" p-id="2065"></path></svg>