<?xml version="1.0" standalone="no"?><!DOCTYPE svg PUBLIC "-//W3C//DTD SVG 1.1//EN" "http://www.w3.org/Graphics/SVG/1.1/DTD/svg11.dtd"><svg t="1625944497997" class="icon" viewBox="0 0 1024 1024" version="1.1" xmlns="http://www.w3.org/2000/svg" p-id="2869" xmlns:xlink="http://www.w3.org/1999/xlink" width="64" height="64"><defs><style type="text/css"></style></defs><path d="M587.2128 570.8288l283.5968 171.1616c49.8176 30.0544 113.3056-5.7856 113.3056-63.9488V335.7184c0-58.1632-63.5392-94.0032-113.3056-63.9488l-283.5968 171.1616c-48.128 29.0304-48.128 98.8672 0 127.8976z" fill="#025FFC" p-id="2870"></path><path d="M636.9792 570.8288l208.9472 126.1056c49.8176 30.0544 113.3056-5.7856 113.3056-63.9488V380.7744c0-58.1632-63.5392-94.0032-113.3056-63.9488l-208.9472 126.1056c-48.1792 29.0304-48.1792 98.8672 0 127.8976z" fill="#0C7AF2" p-id="2871"></path><path d="M679.936 570.8288l128.512 77.568c49.8176 30.0544 113.3056-5.7856 113.3056-63.9488v-155.136c0-58.1632-63.5392-94.0032-113.3056-63.9488l-128.512 77.568c-48.128 29.0304-48.128 98.8672 0 127.8976z" fill="#3489FA" p-id="2872"></path><path d="M657.9712 865.1264H174.4896c-72.192 0-130.7136-58.5216-130.7136-130.7136V279.3984c0-72.192 58.5216-130.7136 130.7136-130.7136h483.4816c72.192 0 130.7136 58.5216 130.7136 130.7136v455.0144c0 72.1408-58.5216 130.7136-130.7136 130.7136z" fill="#025FFC" p-id="2873"></path><path d="M626.0224 804.096H206.4384c-72.192 0-130.7136-58.5216-130.7136-130.7136V302.08c0-72.192 58.5216-130.7136 130.7136-130.7136h419.584c72.192 0 130.7136 58.5216 130.7136 130.7136v371.3024c0 72.192-58.5216 130.7136-130.7136 130.7136z" fill="#0C7AF2" p-id="2874"></path><path d="M592.64 751.616H239.8208c-72.192 0-130.7136-58.5216-130.7136-130.7136v-295.424c0-72.192 58.5216-130.7136 130.7136-130.7136h352.8704c72.192 0 130.7136 58.5216 130.7136 130.7136v295.3728c-0.0512 72.2432-58.5728 130.7648-130.7648 130.7648z" fill="#3489FA" p-id="2875"></path><path d="M555.1104 661.248H277.3504c-72.192 0-130.7136-58.5216-130.7136-130.7136V361.472c0-72.192 58.5216-130.7136 130.7136-130.7136h277.8112c72.192 0 130.7136 58.5216 130.7136 130.7136v169.0624c0 72.192-58.5728 130.7136-130.7648 130.7136z" fill="#3F91FC" p-id="2876"></path><path d="M384.9216 679.9872c-17.3056 0-34.6112-4.5568-50.3808-13.6704-31.5392-18.2272-50.3808-50.8416-50.3808-87.296V434.688c0-36.4544 18.8416-69.0688 50.3808-87.296 31.5392-18.2272 69.2224-18.2272 100.7616 0l125.0304 72.192c31.5392 18.2272 50.3808 50.8416 50.3808 87.296 0 36.4544-18.8416 69.0688-50.3808 87.2448l-125.0304 72.192c-15.7696 9.1136-33.0752 13.6704-50.3808 13.6704z m5.1712-236.288v126.3616L499.5584 506.88 390.0928 443.6992z" fill="#0C7AF2" p-id="2877"></path><path d="M379.136 729.4976c-24.9856 0-49.7664-6.7072-71.7824-19.4048-44.9536-25.9584-71.7824-72.448-71.7824-124.3648V428.032c0-51.9168 26.8288-98.4064 71.7824-124.3648s98.6112-25.9584 143.5648 0l136.5504 78.848c44.9536 25.9584 71.7824 72.448 71.7824 124.3648s-26.8288 98.4064-71.7824 124.3648l-136.5504 78.848c-21.9648 12.6464-46.7968 19.4048-71.7824 19.4048z m5.7856-364.9536c-12.032 0-24.064 3.1744-35.0208 9.472-21.9136 12.6464-35.0208 35.328-35.0208 60.672v144.384c0 25.344 13.1072 48.0256 35.0208 60.672 21.6576 12.4928 48.4352 12.4928 70.0416 0l125.0304-72.192c21.9136-12.6464 35.0208-35.328 35.0208-60.672 0-25.344-13.1072-48.0256-35.0208-60.672l-125.0304-72.192a69.64224 69.64224 0 0 0-35.0208-9.472z m-25.5488 258.7136V390.5024L560.9984 506.88l-201.6256 116.3776z m61.44-126.3616v19.968L438.1184 506.88l-17.3056-9.984z" fill="#0C7AF2" p-id="2878"></path><path d="M384.9216 679.9872c-17.3056 0-34.6112-4.5568-50.3808-13.6704-31.5392-18.2272-50.3808-50.8416-50.3808-87.296V434.688c0-36.4544 18.8416-69.0688 50.3808-87.296 31.5392-18.2272 69.2224-18.2272 100.7616 0l125.0304 72.192c31.5392 18.2272 50.3808 50.8416 50.3808 87.296 0 36.4544-18.8416 69.0688-50.3808 87.2448l-125.0304 72.192c-15.7696 9.1136-33.0752 13.6704-50.3808 13.6704z m5.1712-236.288v126.3616L499.5584 506.88 390.0928 443.6992z" fill="#F7BC00" p-id="2879"></path><path d="M384.9216 660.48c-13.9776 0-27.904-3.6864-40.6528-11.008-25.4464-14.6944-40.6016-41.0112-40.6016-70.3488V434.688c0-29.3888 15.2064-55.6544 40.6528-70.3488 25.4464-14.6944 55.808-14.6944 81.2544 0l125.0304 72.192c25.4464 14.6944 40.6016 41.0112 40.6016 70.3488 0 29.3888-15.2064 55.6544-40.6016 70.3488l-125.0304 72.192c-12.7488 7.3728-26.7264 11.0592-40.6528 11.0592z m0.0512-240.1792c-3.072 0-5.632 1.0752-7.2192 1.9968-2.6624 1.536-7.168 5.2224-7.168 12.3904v144.384c0 7.168 4.5056 10.8544 7.168 12.3904 2.6624 1.536 8.0896 3.584 14.336 0l125.0304-72.192c6.2464-3.584 7.168-9.3184 7.168-12.3904s-0.9216-8.8064-7.168-12.3904l-125.0304-72.192c-2.56-1.4848-4.9664-1.9968-7.1168-1.9968z" fill="#FFD029" p-id="2880"></path><path d="M384.9216 643.6864c-11.0592 0-22.1696-2.9184-32.256-8.7552-20.1728-11.6736-32.256-32.5632-32.256-55.8592V434.688c0-23.3472 12.0832-44.2368 32.256-55.8592 20.224-11.6736 44.3392-11.6736 64.512 0l125.0304 72.192c20.1728 11.6736 32.256 32.5632 32.256 55.8592s-12.0832 44.1856-32.256 55.8592l-125.0304 72.192a64.33792 64.33792 0 0 1-32.256 8.7552z m0-240.0768c-5.3248 0-10.6496 1.3824-15.5136 4.1984a30.73024 30.73024 0 0 0-15.5136 26.88v144.384c0 11.2128 5.7856 21.2992 15.5136 26.88 9.728 5.632 21.3504 5.632 31.0272 0l125.0304-72.192c9.728-5.632 15.5136-15.6672 15.5136-26.88s-5.7856-21.2992-15.5136-26.88l-125.0304-72.192c-4.864-2.816-10.1888-4.1984-15.5136-4.1984z" fill="#FFE576" p-id="2881"></path><path d="M610.7136 326.3488h-79.7184c-19.8144 0-35.84-16.0256-35.84-35.84s16.0256-35.84 35.84-35.84h79.7184c19.8144 0 35.84 16.0256 35.84 35.84s-16.0256 35.84-35.84 35.84z" fill="#9FD1FF" p-id="2882"></path></svg>