<?xml version="1.0" standalone="no"?><!DOCTYPE svg PUBLIC "-//W3C//DTD SVG 1.1//EN" "http://www.w3.org/Graphics/SVG/1.1/DTD/svg11.dtd"><svg t="1625944522245" class="icon" viewBox="0 0 1024 1024" version="1.1" xmlns="http://www.w3.org/2000/svg" p-id="4015" xmlns:xlink="http://www.w3.org/1999/xlink" width="64" height="64"><defs><style type="text/css"></style></defs><path d="M946.2784 272.2304c-22.3232-28.928-56.1152-45.5168-92.672-45.5168H289.8944C277.9136 174.1312 230.6048 135.68 175.7696 135.68H113.2544c-30.5152 0-55.2448 24.7296-55.2448 55.2448s24.7296 55.2448 55.2448 55.2448h62.5152c3.2768 0 6.0928 2.4576 6.5536 5.7344l58.7264 439.1424c7.7312 57.9072 57.6 101.5808 116.0704 101.5808h409.6512c53.1968 0 99.7888-35.9424 113.2544-87.4496l86.8352-331.7248c9.2672-35.3792 1.7408-72.2944-20.5824-101.2224z" fill="#EC8827" p-id="4016"></path><path d="M894.0544 295.1168c-19.456-25.1904-48.8448-39.6288-80.6912-39.6288H226.4576l5.376 42.6496 48.3328 361.3696c6.7584 50.3808 50.176 88.3712 101.0176 88.3712h356.608c46.336 0 86.8352-31.2832 98.6112-76.0832l75.5712-288.6656c8.0896-30.72 1.536-62.8224-17.92-88.0128z" fill="#EDA948" p-id="4017"></path><path d="M859.1872 322.304c-17.3568-21.1968-43.5712-33.3312-71.9872-33.3312H263.6288l4.7616 35.8912 43.1104 303.9232c5.9904 42.3936 44.7488 74.3424 90.112 74.3424h318.1056c41.3184 0 77.4656-26.3168 87.9616-64l67.4304-242.7904c7.2704-25.856 1.4336-52.8384-15.9232-74.0352z" fill="#F3BD50" p-id="4018"></path><path d="M809.3184 352.3584c-14.336-17.5104-36.0448-27.5456-59.4944-27.5456H316.8256l3.9424 29.6448 35.6864 251.3408c4.9664 35.0208 37.0176 61.44 74.496 61.44h263.0656c34.1504 0 64.1024-21.76 72.7552-52.8896l55.7568-200.7552c5.9392-21.4016 1.1264-43.7248-13.2096-61.2352z" fill="#FFD071" p-id="4019"></path><path d="M728.9344 630.7328H403.9168c-32.2048 0-58.3168-31.3344-58.3168-69.9904s26.112-69.9904 58.3168-69.9904h325.0688c32.2048 0 58.3168 31.3344 58.3168 69.9904-0.0512 38.656-26.1632 69.9904-58.368 69.9904z" fill="#EC8827" p-id="4020"></path><path d="M711.2704 611.9424H421.5808c-28.7232 0-51.968-23.296-51.968-51.968 0-28.7232 23.296-51.968 51.968-51.968h289.7408c28.7232 0 51.968 23.296 51.968 51.968 0 28.7232-23.296 51.968-52.0192 51.968z" fill="#634FED" p-id="4021"></path><path d="M711.2704 593.7664H421.5808a33.792 33.792 0 0 1 0-67.584h289.7408a33.792 33.792 0 0 1 33.792 33.792 33.83808 33.83808 0 0 1-33.8432 33.792z" fill="#7369F3" p-id="4022"></path><path d="M711.2704 575.5904H421.5808a15.616 15.616 0 1 1 0-31.232h289.7408a15.616 15.616 0 0 1 15.616 15.616 15.68768 15.68768 0 0 1-15.6672 15.616z" fill="#9292FF" p-id="4023"></path><path d="M340.1728 815.104m-78.1824 0a78.1824 78.1824 0 1 0 156.3648 0 78.1824 78.1824 0 1 0-156.3648 0Z" fill="#EC4E1F" p-id="4024"></path><path d="M340.1728 811.5712m-56.1152 0a56.1152 56.1152 0 1 0 112.2304 0 56.1152 56.1152 0 1 0-112.2304 0Z" fill="#F67D00" p-id="4025"></path><path d="M340.1728 806.7072m-41.728 0a41.728 41.728 0 1 0 83.456 0 41.728 41.728 0 1 0-83.456 0Z" fill="#F59633" p-id="4026"></path><path d="M739.328 815.104m-78.1824 0a78.1824 78.1824 0 1 0 156.3648 0 78.1824 78.1824 0 1 0-156.3648 0Z" fill="#EC4E1F" p-id="4027"></path><path d="M739.328 811.52m-57.088 0a57.088 57.088 0 1 0 114.176 0 57.088 57.088 0 1 0-114.176 0Z" fill="#F67D00" p-id="4028"></path><path d="M739.328 806.5536m-42.4448 0a42.4448 42.4448 0 1 0 84.8896 0 42.4448 42.4448 0 1 0-84.8896 0Z" fill="#F59633" p-id="4029"></path></svg>